<?xml version="1.0" encoding="utf-8"?>
<!-- Generator: Adobe Illustrator 24.0.0, SVG Export Plug-In . SVG Version: 6.00 Build 0)  -->
<svg version="1.1" id="Layer_1" xmlns="http://www.w3.org/2000/svg" xmlns:xlink="http://www.w3.org/1999/xlink" x="0px" y="0px"
	 viewBox="0 0 46 46.1" style="enable-background:new 0 0 46 46.1;" xml:space="preserve">
<style type="text/css">
	.st0{fill-rule:evenodd;clip-rule:evenodd;fill:#D7D6D7;}
	.st1{fill-rule:evenodd;clip-rule:evenodd;fill:#FFFFFF;}
	.st2{fill-rule:evenodd;clip-rule:evenodd;fill:#1A3A7F;}
	.st3{fill-rule:evenodd;clip-rule:evenodd;fill:url(#SVGID_1_);}
	.st4{fill-rule:evenodd;clip-rule:evenodd;fill:#008AD1;}
	.st5{fill-rule:evenodd;clip-rule:evenodd;fill:#142956;}
	.st6{fill-rule:evenodd;clip-rule:evenodd;fill:#0E79BA;}
	.st7{fill-rule:evenodd;clip-rule:evenodd;fill:#717E85;}
</style>
<g>
	<path class="st0" d="M41,21.5l2.6-6h-3.9v-4.8c0-1.4-0.7-2.6-2.1-3.4C35.3,5.9,30.2,3.5,23,3.5c-7.2,0-12.3,2.4-14.7,3.9
		c-1.3,0.8-2.1,2-2.1,3.4v4.8H2.4l2.6,6l-2.6,6h4.1c0.6,3.3,2.6,6.5,5.9,9.5c3.5,3.2,7.4,5.1,8.5,5.6c1.3,0.6,1.7,0.6,2.1,0.6h0
		c0.4,0,0.9,0,2.1-0.6c1.1-0.5,4.9-2.4,8.5-5.6c3.3-3,5.3-6.2,5.9-9.5h4.1L41,21.5z"/>
	<path class="st1" d="M40.7,32.5c-0.4,0.9-0.2,1.9-0.2,1.9c0,0,0.9-0.5,1.3-1.5c0.4-1,0.1-2,0.1-2C41.8,30.9,41,31.6,40.7,32.5"/>
	<path class="st1" d="M32.4,41.5c0.3-0.1,0.7-0.1,0.7-0.1c0,0-0.1,0.2-0.3,0.5c-0.2,0.3-0.4,0.8-0.7,1.3c0,0-0.1,0.1-0.1,0.1
		c0.1,0,0.1,0,0.2,0c1.1-0.2,2.1,0.2,2.1,0.2c0,0-0.8,0.8-2,1c-1.2,0.2-2.1-0.4-2.1-0.4l0,0c0,0,0,0,0,0c0,0,0.2-0.1,0.4-0.5
		c0.2-0.3,0.4-0.8,0.7-1.2C31.6,41.9,32,41.6,32.4,41.5"/>
	<path class="st1" d="M35,39.4c0.3-0.2,0.7-0.2,0.6-0.2c0,0-0.1,0.2-0.2,0.5c-0.1,0.3-0.2,0.8-0.4,1.3c0,0.1,0,0.1-0.1,0.1
		c0.1,0,0.1,0,0.2-0.1c1-0.3,2.1-0.2,2.1-0.2c0,0-0.7,0.9-1.8,1.3c-1.1,0.3-2.1,0-2.1,0c0,0,0,0,0,0c0,0,0,0,0,0
		c0,0,0.1-0.2,0.3-0.5c0.2-0.3,0.3-0.8,0.5-1.3C34.4,39.9,34.7,39.6,35,39.4"/>
	<path class="st1" d="M37.3,36.9c0.3-0.2,0.6-0.3,0.6-0.3c0,0-0.1,0.2-0.1,0.6c0,0.4-0.1,0.9-0.2,1.4c0,0.1,0,0.1,0,0.2
		c0.1,0,0.1-0.1,0.2-0.1c1-0.5,2-0.5,2-0.5c0,0-0.5,1-1.6,1.6c-1,0.5-2.1,0.3-2.1,0.3v0c0,0,0,0,0,0c0,0,0.1-0.2,0.2-0.5
		c0.1-0.3,0.2-0.9,0.3-1.4C36.7,37.5,37,37.2,37.3,36.9"/>
	<path class="st1" d="M39.1,34.1c0.2-0.3,0.6-0.4,0.5-0.4c0,0,0,0.2,0,0.6c0,0.4,0.1,0.9,0,1.4c0,0.1,0,0.1,0,0.2
		c0.1,0,0.1-0.1,0.2-0.1c0.9-0.7,1.9-0.9,1.9-0.9c0,0-0.4,1.1-1.3,1.8c-0.9,0.7-2,0.7-2,0.7c0,0,0,0,0,0c0,0,0,0,0,0
		c0,0,0.1-0.2,0.1-0.6c0-0.4,0-0.9,0.1-1.4C38.7,34.8,38.9,34.3,39.1,34.1"/>
	<path class="st1" d="M29.4,43.1c0.4-0.1,0.7,0,0.7,0c0,0-0.1,0.1-0.4,0.4c-0.2,0.3-0.5,0.7-0.9,1.1c0,0-0.1,0.1-0.1,0.1
		c0.1,0,0.1,0,0.2,0c1.1,0,2.1,0.5,2.1,0.5c0,0-1,0.6-2.2,0.6c-0.4,0-0.7-0.1-1-0.2c-0.1,0-0.1,0-0.2-0.1c-0.5-0.2-2.3,0.3-2.8,0.5
		c-0.3,0.1-0.3-0.7-0.1-0.7c0.4,0,1.8,0.1,2.5-0.6c0.1,0,0.1-0.1,0.2-0.1c0.2-0.3,0.5-0.6,0.9-1C28.6,43.3,29,43.1,29.4,43.1"/>
	<path class="st1" d="M5.3,32.5c0.4,0.9,0.2,1.9,0.2,1.9c0,0-0.9-0.5-1.3-1.5c-0.4-1-0.1-2-0.1-2C4.2,30.9,5,31.6,5.3,32.5"/>
	<path class="st1" d="M13.6,41.5c-0.3-0.1-0.7-0.1-0.7-0.1c0,0,0.1,0.2,0.3,0.5c0.2,0.3,0.4,0.8,0.7,1.3c0,0,0.1,0.1,0.1,0.1
		c-0.1,0-0.1,0-0.2,0c-1.1-0.2-2.1,0.2-2.1,0.2c0,0,0.8,0.8,2,1c1.2,0.2,2.1-0.4,2.1-0.4l0,0c0,0,0,0,0,0c0,0-0.2-0.1-0.4-0.5
		c-0.2-0.3-0.4-0.8-0.7-1.2C14.4,41.9,14,41.6,13.6,41.5"/>
	<path class="st1" d="M11,39.4c-0.3-0.2-0.7-0.2-0.6-0.2c0,0,0.1,0.2,0.2,0.5c0.1,0.3,0.2,0.8,0.4,1.3c0,0.1,0,0.1,0.1,0.1
		c-0.1,0-0.1,0-0.2-0.1c-1-0.3-2.1-0.2-2.1-0.2c0,0,0.7,0.9,1.8,1.3c1.1,0.3,2.1,0,2.1,0c0,0,0,0,0,0c0,0,0,0,0,0
		c0,0-0.1-0.2-0.3-0.5c-0.2-0.3-0.3-0.8-0.5-1.3C11.6,39.9,11.3,39.6,11,39.4"/>
	<path class="st1" d="M8.7,36.9c-0.3-0.2-0.6-0.3-0.6-0.3c0,0,0.1,0.2,0.1,0.6c0,0.4,0.1,0.9,0.2,1.4c0,0.1,0,0.1,0,0.2
		c-0.1,0-0.1-0.1-0.2-0.1c-1-0.5-2-0.5-2-0.5c0,0,0.5,1,1.6,1.6c1,0.5,2.1,0.3,2.1,0.3v0c0,0,0,0,0,0c0,0-0.1-0.2-0.2-0.5
		c-0.1-0.3-0.2-0.9-0.3-1.4C9.3,37.5,9,37.2,8.7,36.9"/>
	<path class="st1" d="M6.9,34.1c-0.2-0.3-0.6-0.4-0.5-0.4c0,0,0,0.2,0,0.6c0,0.4-0.1,0.9,0,1.4c0,0.1,0,0.1,0,0.2
		c-0.1,0-0.1-0.1-0.2-0.1c-0.9-0.7-1.9-0.9-1.9-0.9c0,0,0.4,1.1,1.3,1.8c0.9,0.7,2,0.7,2,0.7c0,0,0,0,0,0c0,0,0,0,0,0
		c0,0-0.1-0.2-0.1-0.6c0-0.4,0-0.9-0.1-1.4C7.3,34.8,7.1,34.3,6.9,34.1"/>
	<path class="st1" d="M16.6,43.1c-0.4-0.1-0.7,0-0.7,0c0,0,0.1,0.1,0.4,0.4c0.2,0.3,0.5,0.7,0.9,1.1c0,0,0.1,0.1,0.1,0.1
		c-0.1,0-0.1,0-0.2,0c-1.1,0-2.1,0.5-2.1,0.5c0,0,1,0.6,2.2,0.6c0.4,0,0.7-0.1,1-0.2c0.1,0,0.1,0,0.2-0.1c0.5-0.2,2.3,0.3,2.8,0.5
		c0.3,0.1,0.3-0.7,0.1-0.7c-0.4,0-1.8,0.1-2.5-0.6c-0.1,0-0.1-0.1-0.2-0.1c-0.2-0.3-0.5-0.6-0.9-1C17.4,43.3,17,43.1,16.6,43.1"/>
	<polygon class="st1" points="42.1,16.5 3.9,16.5 6.1,21.5 3.9,26.4 42.1,26.4 39.9,21.5 	"/>
	<path class="st2" d="M37.2,8.2C35.2,7,30.3,4.5,23,4.5C15.7,4.5,10.8,7,8.8,8.2C8,8.7,7.3,9.5,7.3,10.7v14.5
		c0,8.3,9.6,14.3,14,16.4c1.2,0.5,1.4,0.5,1.7,0.5c0.3,0,0.5,0,1.7-0.5c4.4-2,14-8.1,14-16.4l0-14.5C38.7,9.5,38,8.7,37.2,8.2"/>
	<path class="st1" d="M23,5.7c-6.6,0-11.3,2.2-13.5,3.5c-0.6,0.4-1,0.9-1,1.4v14.5c0,7.2,8.3,13,13.3,15.2c0.9,0.4,1.1,0.4,1.2,0.4
		h0c0.1,0,0.3,0,1.2-0.4c4.9-2.3,13.3-8,13.3-15.2V10.7c0-0.6-0.3-1.1-1-1.4C34.3,7.9,29.6,5.7,23,5.7L23,5.7z M23,6.3
		c6.5,0,11.1,2.2,13.2,3.5c0.7,0.4,0.7,0.8,0.7,1v14.5c0,7-8.1,12.5-13,14.7c-0.8,0.3-0.9,0.4-1,0.4l0,0c0,0-0.2,0-1-0.4
		c-4.8-2.2-13-7.8-13-14.7V10.7c0-0.1,0-0.6,0.7-1C11.9,8.4,16.5,6.3,23,6.3z"/>
	<linearGradient id="SVGID_1_" gradientUnits="userSpaceOnUse" x1="7.7953" y1="30.1252" x2="10.1095" y2="31.7072">
		<stop  offset="0.2767" style="stop-color:#0E79BA"/>
		<stop  offset="0.5408" style="stop-color:#0E77B8"/>
		<stop  offset="0.6934" style="stop-color:#106EB0"/>
		<stop  offset="0.8175" style="stop-color:#1360A3"/>
		<stop  offset="0.9257" style="stop-color:#164D90"/>
		<stop  offset="1" style="stop-color:#1A3A7F"/>
	</linearGradient>
	<path class="st3" d="M10.6,31.1l-1.9,1.2c0,0,0,0,0,0c0,0,0,0,0,0c0,0,0,0,0,0c0,0,0,0,0,0c-0.1-0.1-0.3-0.3-0.4-0.4
		c-0.1-0.2-0.3-0.4-0.5-0.6c-0.2-0.2-0.3-0.4-0.4-0.5c-0.1-0.2-0.3-0.3-0.4-0.4l1.6-0.9c0.1,0.1,0.3,0.2,0.5,0.3
		c0.2,0.1,0.3,0.3,0.5,0.5c0.2,0.2,0.3,0.3,0.5,0.5c0.2,0.1,0.3,0.3,0.5,0.3C10.5,31,10.5,31,10.6,31.1
		C10.5,31.1,10.6,31.1,10.6,31.1C10.6,31.1,10.6,31.1,10.6,31.1C10.6,31.1,10.6,31.1,10.6,31.1C10.6,31.1,10.7,31.1,10.6,31.1
		c0.1,0,0.1,0,0.1,0c0,0,0,0,0.1,0c0,0,0,0,0.1,0c0,0,0.1,0,0.1,0c0,0,0.1,0,0.1,0c0,0,0.1,0,0.1,0c0,0,0.1,0,0.1-0.1v0l-2.1,1.4
		c0,0,0,0-0.1,0c0,0,0,0-0.1,0c0,0,0,0-0.1,0c0,0-0.1,0-0.1,0c0,0,0,0,0,0c0,0,0,0,0,0c0,0,0,0,0,0c0,0,0,0,0,0L10.6,31.1z"/>
	<path class="st1" d="M23.2,10.8c-1,0-1.8,0.8-1.8,1.8c0,1,0.8,1.8,1.8,1.8c1,0,1.8-0.8,1.8-1.8C25,11.6,24.2,10.8,23.2,10.8"/>
	<path class="st1" d="M20.2,19.1c-0.2,0.2-0.4,0.4-0.5,0.6c-3.1,3.5-4.1,7.5-2.3,8.9c5.1,3.9,18.9-13.1,9.2-19.4
		c5.1,3.9,2.4,11.1-1.1,15.1c-2.6,3-5.9,4.5-7.4,3.4c-1.5-1.1-0.5-4.4,2.1-7.4c0.4-0.4,0.7-0.8,1.1-1.2c-0.3,0-0.7,0-1,0
		C20.3,19.1,20.2,19.1,20.2,19.1"/>
	<polygon class="st1" points="20.7,0 23.1,1.4 25.9,0.3 25.1,3 27,5.2 24.1,5.4 22.4,8 21.4,5.4 18.5,4.8 20.8,2.9 	"/>
	<path class="st4" d="M19.4,11.5l-0.5-0.1l3.5-2.2l3.1,0.6l-1.5,1l0.3,0.4c0,0-1.3-0.1-2.8,1.2c0,0-0.3-0.6-0.3-0.8
		c0-0.1,0-0.4,0.3-0.7c0.3-0.2,1-0.6,1.9-0.7c0,0-1,0-2,0.7c-0.5,0.3-0.3,1-0.3,1l-1.5-0.3l0.2,0.3l0.8,1l-0.4,0.2l-0.5-1.2
		L19.4,11.5z"/>
	<path class="st5" d="M12.6,29.7L12.6,29.7L12.6,29.7L12.6,29.7L12.6,29.7L12.6,29.7L12.6,29.7L12.6,29.7L12.6,29.7L12.6,29.7
		L12.6,29.7L12.6,29.7L12.6,29.7L12.6,29.7L12.6,29.7L12.6,29.7L12.6,29.7L12.6,29.7L12.6,29.7l-0.1,0.1l0,0v0l0,0l0,0l0,0l0,0l0,0
		l0,0h0l0,0l0,0v0l0,0 M11.3,31l-2.2,1.4c0,0,0.1-0.1,0.1-0.1c0-0.1,0.1-0.1,0.1-0.2c0-0.1,0.1-0.2,0.1-0.3c0.1-0.1,0.1-0.2,0.2-0.2
		c1.9-1,2-1.3,2.7-1.7l0,0l0,0l0,0l0,0h0l0,0l0,0l0,0l0,0l0,0l0,0l0,0l0,0l0,0l0,0l0,0l0,0l0,0l0,0l0,0l0,0l0,0l0,0l0,0l0,0l0,0l0,0
		l0,0l0,0l0,0l0,0l0,0l0,0l0,0l0,0l0,0l0,0l0,0l0,0l0,0l0,0l0,0l0,0l0,0c-0.1,0.1-0.2,0.2-0.3,0.4c-0.1,0.1-0.2,0.2-0.2,0.3l0,0l0,0
		l0,0l0,0l0,0l0,0l0,0l0,0l0,0l0,0l0,0l0,0l0,0l0,0l0,0l0,0l0,0l0,0l0,0l0,0l0,0l0,0l0,0l0,0l0,0l0,0l0,0l0,0l0,0v0l0,0v0l0,0l0,0
		l0,0l0,0l0,0l0,0v0l0,0l0,0v0l0,0L11.3,31L11.3,31L11.3,31L11.3,31L11.3,31L11.3,31L11.3,31L11.3,31L11.3,31L11.3,31L11.3,31
		L11.3,31L11.3,31L11.3,31L11.3,31L11.3,31L11.3,31L11.3,31L11.3,31L11.3,31L11.3,31L11.3,31L11.3,31L11.3,31L11.3,31L11.3,31
		L11.3,31L11.3,31L11.3,31L11.3,31L11.3,31L11.3,31L11.3,31L11.3,31L11.3,31L11.3,31L11.3,31L11.3,31L11.3,31z"/>
	<path class="st6" d="M28.1,35.9l-3.3,7.3c-0.2-0.2-0.9-1.1-2.1-2.3c-1.1-1.1-2.5-2.6-4.1-4c-1.4-1.3-2.8-2.5-4.1-3.5
		c-1.1-0.8-2.1-1.5-3-1.8c0,0-0.1,0-0.1-0.1c0,0-0.1,0-0.1,0c0,0-0.1,0-0.1,0c0,0-0.1,0-0.1,0c-0.1,0-0.1,0-0.2-0.1
		c-0.1,0-0.1,0-0.2,0c-0.1,0-0.1,0-0.2,0c0,0-0.1,0-0.1,0c-0.1,0-0.2,0-0.3,0c-0.1,0-0.1,0-0.2,0c-0.1,0-0.1,0-0.2,0.1
		c0,0-0.1,0-0.1,0.1l2.9-1.8c0.1,0,0.1-0.1,0.2-0.1c0.1,0,0.2-0.1,0.3-0.1c0.1,0,0.2-0.1,0.3-0.1c0.1,0,0.2-0.1,0.4-0.1
		c0.1,0,0.1,0,0.2,0c0.1,0,0.1,0,0.2,0c0.1,0,0.2,0,0.2,0c0.1,0,0.2,0,0.2,0c0.1,0,0.1,0,0.2,0c0.1,0,0.1,0,0.2,0c0.1,0,0.1,0,0.2,0
		c0.1,0,0.1,0,0.2,0c1,0.1,2.2,0.4,3.4,0.8c1.4,0.5,2.8,1.3,4.1,2c1.4,0.9,2.7,1.7,3.6,2.5C27.4,35.2,28,35.7,28.1,35.9L28.1,35.9z"
		/>
	<g>
		<g>
			<g>
				<polygon class="st1" points="17.2,32.5 17.7,33 18.4,32.9 18.1,33.5 18.4,34.1 17.7,34 17.2,34.5 17.1,33.9 16.4,33.5 
					17.1,33.2 				"/>
			</g>
			<g>
				<polygon class="st1" points="12.2,30.5 12.7,30.7 13.1,30.3 13.1,30.8 13.5,31.1 13,31.3 12.9,31.8 12.6,31.4 12.1,31.4 
					12.4,31 				"/>
			</g>
			<g>
				<polygon class="st1" points="15.8,30 16.4,30.1 17,29.7 17,30.3 17.5,30.6 16.9,30.9 16.8,31.5 16.4,31 15.7,31.1 16.1,30.6 
									"/>
			</g>
			<g>
				<polygon class="st1" points="7.9,30 8.1,30.1 8.3,30 8.2,30.2 8.3,30.4 8.1,30.4 8,30.5 8,30.4 7.8,30.3 7.9,30.2 				"/>
			</g>
			<g>
				<polygon class="st1" points="8.7,30.5 8.9,30.5 9.1,30.3 9.1,30.6 9.3,30.7 9.1,30.7 9,31 8.9,30.8 8.7,30.8 8.8,30.6 				"/>
			</g>
			<g>
				<polygon class="st1" points="8.8,31.3 8.9,31.5 9.2,31.5 9,31.7 9.1,31.9 8.9,31.8 8.7,31.9 8.7,31.7 8.5,31.6 8.7,31.5 				"/>
			</g>
			<g>
				<polygon class="st1" points="20.3,32.9 21.2,32.7 21.6,31.9 21.9,32.6 22.8,32.7 22.2,33.4 22.4,34.3 21.6,33.9 20.9,34.4 
					21,33.5 				"/>
			</g>
			<g>
				<polygon class="st1" points="20.2,35.7 21.3,35.7 21.9,34.8 22.2,35.8 23.1,36.2 22.3,36.8 22.2,37.9 21.4,37.2 20.4,37.5 
					20.8,36.5 				"/>
			</g>
			<g>
				<polygon class="st1" points="24,36.9 25,36.4 25.1,35.2 25.9,36.1 27,35.9 26.5,36.9 27,38 25.9,37.8 25.1,38.6 25,37.5 				"/>
			</g>
		</g>
	</g>
	<path class="st1" d="M30.6,14.9c0.2,0.1,0.4,0.3,0.6,0.4c2.4,2.2,0.3,7.7-4.5,12.2c-6.9,6.4-14.5,7-13,1c-0.1,1,0.3,1.9,0.8,2.4
		c1.8,1.7,6.8-0.2,11.1-4.3c4-3.8,6.1-8.2,4.9-10.2C30.6,15.9,30.6,15.4,30.6,14.9"/>
	<path class="st1" d="M27.4,27.6L27.4,27.6c-0.9,3.1-2.3,6-4.1,8.7c0.8-2.1,1.3-4.2,1.6-6.5c0.6-0.5,1.3-1,1.9-1.6
		C27,28.1,27.2,27.9,27.4,27.6 M16.2,19.8c3.5-5.4,12.8,1.2,9-12.4c1.6,3,2.6,6.3,3,9.7c-0.5,2-1.5,4.1-2.8,5.7
		c-0.2,0.3-0.4,0.5-0.7,0.8c-1.2,1.4-2.6,2.5-3.9,3.1c-0.4,0.2-0.7,0.3-1,0.4c1.8-1.6,4.9-6,2.9-7.9C21.4,17.9,18.7,18.1,16.2,19.8z
		"/>
	<path class="st7" d="M6.9,30.4c0.1,0.1,0.2,0.2,0.4,0.4c0.1,0.2,0.3,0.3,0.4,0.5c0.2,0.2,0.3,0.4,0.5,0.6c0.2,0.2,0.3,0.3,0.4,0.4
		c0,0,0,0,0.1,0c0,0,0,0,0.1,0c0,0,0,0,0.1,0c0,0,0,0,0.1,0c0.1,0,0.2,0,0.3,0c0.1-0.1,0.1-0.2,0.2-0.3c0.1-0.1,0.1-0.3,0.3-0.4
		c0.2-0.1,0.4-0.2,0.8-0.2c0.1,0,0.2,0,0.2,0c0.1,0,0.2,0,0.3,0.1c0.1,0,0.2,0.1,0.3,0.1c0.1,0,0.2,0.1,0.3,0.1
		c0.9,0.4,1.9,1.1,3.1,1.9c1.4,1.1,2.9,2.4,4.4,3.7c1.6,1.5,3.1,3,4.1,4.1c1.1,1.2,1.7,1.9,1.7,1.9c0,0,0,0,0,0c0,0,0-0.1-0.1-0.1
		c0,0-0.1-0.1-0.1-0.2c-0.1-0.1-0.1-0.1-0.2-0.2C24,42.2,23,41.3,21.8,40c-1.1-1.1-2.5-2.4-3.9-3.7c-1.3-1.1-2.5-2.2-3.7-3
		c-1-0.7-1.9-1.3-2.6-1.6c-0.1,0-0.2-0.1-0.3-0.1c-0.1,0-0.2-0.1-0.3-0.1c-0.1,0-0.2,0-0.3-0.1c-0.1,0-0.2,0-0.2,0
		c-0.4,0-0.7,0.1-0.8,0.2c-0.1,0.1-0.2,0.3-0.3,0.4c-0.1,0.1-0.1,0.3-0.2,0.3c-0.1,0.1-0.2,0.1-0.3,0c0,0,0,0-0.1,0c0,0,0,0-0.1,0
		c0,0,0,0-0.1,0c0,0,0,0-0.1,0c-0.1-0.1-0.3-0.3-0.4-0.4c-0.1-0.2-0.3-0.4-0.5-0.6c-0.2-0.2-0.3-0.4-0.4-0.5
		C7.2,30.6,7,30.4,6.9,30.4"/>
</g>
</svg>
