<?xml version="1.0" encoding="utf-8"?>
<!-- Generator: Adobe Illustrator 24.0.0, SVG Export Plug-In . SVG Version: 6.00 Build 0)  -->
<svg version="1.1" id="Layer_1" xmlns="http://www.w3.org/2000/svg" xmlns:xlink="http://www.w3.org/1999/xlink" x="0px" y="0px"
	 viewBox="0 0 154.9 46.1" style="enable-background:new 0 0 154.9 46.1;" xml:space="preserve">
<style type="text/css">
	.st0{fill-rule:evenodd;clip-rule:evenodd;fill:#D7D6D7;}
	.st1{fill-rule:evenodd;clip-rule:evenodd;fill:#FFFFFF;}
	.st2{fill-rule:evenodd;clip-rule:evenodd;fill:#1A3A7F;}
	.st3{fill-rule:evenodd;clip-rule:evenodd;fill:url(#SVGID_1_);}
	.st4{fill-rule:evenodd;clip-rule:evenodd;fill:#008AD1;}
	.st5{fill-rule:evenodd;clip-rule:evenodd;fill:#142956;}
	.st6{fill-rule:evenodd;clip-rule:evenodd;fill:#0E79BA;}
	.st7{fill-rule:evenodd;clip-rule:evenodd;fill:#717E85;}
	.st8{fill:#FFFFFF;}
</style>
<g>
	<path class="st0" d="M43.1,21.4l2.6-6h-3.9v-4.7c0-1.4-0.7-2.6-2-3.4c-2.4-1.4-7.5-3.8-14.6-3.8c-7.2,0-12.2,2.4-14.6,3.8
		c-1.3,0.8-2.1,2-2.1,3.4v4.7H4.6l2.6,6l-2.6,6h4.1c0.6,3.3,2.6,6.4,5.9,9.4c3.5,3.2,7.3,5.1,8.4,5.6c1.3,0.6,1.7,0.6,2.1,0.6h0
		c0.4,0,0.9,0,2.1-0.6c1.1-0.5,4.9-2.4,8.4-5.6c3.3-3,5.3-6.2,5.9-9.4h4.1L43.1,21.4z"/>
	<path class="st1" d="M42.7,32.4c-0.4,0.9-0.2,1.9-0.2,1.9c0,0,0.9-0.5,1.3-1.5c0.4-1,0.1-2,0.1-2C43.9,30.8,43.1,31.5,42.7,32.4"/>
	<path class="st1" d="M34.4,41.4c0.3-0.1,0.7-0.1,0.7-0.1c0,0-0.1,0.2-0.3,0.5c-0.2,0.3-0.4,0.8-0.7,1.3c0,0-0.1,0.1-0.1,0.1
		c0.1,0,0.1,0,0.2,0c1.1-0.2,2.1,0.2,2.1,0.2c0,0-0.8,0.8-2,0.9c-1.2,0.2-2.1-0.4-2.1-0.4l0,0c0,0,0,0,0,0c0,0,0.2-0.1,0.4-0.5
		c0.2-0.3,0.4-0.7,0.7-1.2C33.7,41.7,34.1,41.5,34.4,41.4"/>
	<path class="st1" d="M37.1,39.3c0.3-0.2,0.7-0.2,0.6-0.2c0,0-0.1,0.2-0.2,0.5c-0.1,0.3-0.2,0.8-0.4,1.3c0,0.1,0,0.1-0.1,0.1
		c0.1,0,0.1,0,0.2-0.1c1-0.3,2.1-0.2,2.1-0.2c0,0-0.7,0.9-1.8,1.3c-1.1,0.3-2.1,0-2.1,0c0,0,0,0,0,0c0,0,0,0,0,0
		c0,0,0.1-0.2,0.3-0.5c0.2-0.3,0.3-0.8,0.5-1.3C36.4,39.8,36.8,39.5,37.1,39.3"/>
	<path class="st1" d="M39.4,36.8c0.3-0.2,0.6-0.3,0.6-0.3c0,0-0.1,0.2-0.1,0.6c0,0.3-0.1,0.9-0.2,1.4c0,0.1,0,0.1,0,0.2
		c0.1,0,0.1-0.1,0.2-0.1c1-0.5,2-0.5,2-0.5c0,0-0.5,1-1.6,1.6c-1,0.5-2.1,0.3-2.1,0.3v0c0,0,0,0,0,0c0,0,0.1-0.2,0.2-0.5
		c0.1-0.3,0.2-0.9,0.3-1.4C38.8,37.4,39.1,37,39.4,36.8"/>
	<path class="st1" d="M41.2,34c0.2-0.3,0.5-0.4,0.5-0.4c0,0,0,0.2,0,0.6c0,0.4,0.1,0.9,0,1.4c0,0.1,0,0.1,0,0.2
		c0.1,0,0.1-0.1,0.2-0.1c0.9-0.7,1.9-0.9,1.9-0.9c0,0-0.4,1.1-1.3,1.8c-0.9,0.7-2,0.7-2,0.7c0,0,0,0,0,0c0,0,0,0,0,0
		c0,0,0.1-0.2,0.1-0.6c0-0.4,0-0.9,0.1-1.4C40.7,34.7,40.9,34.3,41.2,34"/>
	<path class="st1" d="M31.5,43c0.4-0.1,0.7,0,0.7,0c0,0-0.1,0.1-0.4,0.4c-0.2,0.3-0.5,0.7-0.9,1.1c0,0-0.1,0.1-0.1,0.1
		c0.1,0,0.1,0,0.2,0c1.1,0,2,0.5,2,0.5c0,0-1,0.6-2.1,0.6c-0.4,0-0.7-0.1-1-0.2c-0.1,0-0.1,0-0.2-0.1c-0.5-0.2-2.3,0.3-2.8,0.5
		c-0.3,0.1-0.3-0.7-0.1-0.7c0.4,0,1.8,0.1,2.5-0.6c0.1,0,0.1-0.1,0.2-0.1c0.2-0.3,0.5-0.6,0.9-1C30.7,43.2,31.1,43,31.5,43"/>
	<path class="st1" d="M7.5,32.4c0.4,0.9,0.2,1.9,0.2,1.9c0,0-0.9-0.5-1.3-1.5c-0.4-1-0.1-2-0.1-2C6.3,30.8,7.1,31.5,7.5,32.4"/>
	<path class="st1" d="M15.8,41.4c-0.3-0.1-0.7-0.1-0.7-0.1c0,0,0.1,0.2,0.3,0.5c0.2,0.3,0.4,0.8,0.7,1.3c0,0,0.1,0.1,0.1,0.1
		c-0.1,0-0.1,0-0.2,0c-1.1-0.2-2.1,0.2-2.1,0.2c0,0,0.8,0.8,2,0.9c1.2,0.2,2.1-0.4,2.1-0.4l0,0c0,0,0,0,0,0c0,0-0.2-0.1-0.4-0.5
		c-0.2-0.3-0.4-0.7-0.7-1.2C16.5,41.7,16.1,41.5,15.8,41.4"/>
	<path class="st1" d="M13.1,39.3c-0.3-0.2-0.7-0.2-0.6-0.2c0,0,0.1,0.2,0.2,0.5c0.1,0.3,0.2,0.8,0.4,1.3c0,0.1,0,0.1,0.1,0.1
		c-0.1,0-0.1,0-0.2-0.1c-1-0.3-2.1-0.2-2.1-0.2c0,0,0.7,0.9,1.8,1.3c1.1,0.3,2.1,0,2.1,0c0,0,0,0,0,0c0,0,0,0,0,0
		c0,0-0.1-0.2-0.3-0.5c-0.2-0.3-0.3-0.8-0.5-1.3C13.8,39.8,13.5,39.5,13.1,39.3"/>
	<path class="st1" d="M10.9,36.8c-0.3-0.2-0.6-0.3-0.6-0.3c0,0,0.1,0.2,0.1,0.6c0,0.3,0.1,0.9,0.2,1.4c0,0.1,0,0.1,0,0.2
		c-0.1,0-0.1-0.1-0.2-0.1c-1-0.5-2-0.5-2-0.5c0,0,0.5,1,1.6,1.6c1,0.5,2.1,0.3,2.1,0.3v0c0,0,0,0,0,0c0,0-0.1-0.2-0.2-0.5
		c-0.1-0.3-0.2-0.9-0.3-1.4C11.4,37.4,11.2,37,10.9,36.8"/>
	<path class="st1" d="M9,34c-0.2-0.3-0.5-0.4-0.5-0.4c0,0,0,0.2,0,0.6c0,0.4-0.1,0.9,0,1.4c0,0.1,0,0.1,0,0.2
		c-0.1,0-0.1-0.1-0.2-0.1c-0.9-0.7-1.9-0.9-1.9-0.9c0,0,0.4,1.1,1.3,1.8c0.9,0.7,2,0.7,2,0.7c0,0,0,0,0,0c0,0,0,0,0,0
		c0,0-0.1-0.2-0.1-0.6c0-0.4,0-0.9-0.1-1.4C9.5,34.7,9.3,34.3,9,34"/>
	<path class="st1" d="M18.7,43c-0.4-0.1-0.7,0-0.7,0c0,0,0.1,0.1,0.4,0.4c0.2,0.3,0.5,0.7,0.9,1.1c0,0,0.1,0.1,0.1,0.1
		c-0.1,0-0.1,0-0.2,0c-1.1,0-2,0.5-2,0.5c0,0,1,0.6,2.1,0.6c0.4,0,0.7-0.1,1-0.2c0.1,0,0.1,0,0.2-0.1c0.5-0.2,2.3,0.3,2.8,0.5
		c0.3,0.1,0.3-0.7,0.1-0.7c-0.4,0-1.8,0.1-2.5-0.6c-0.1,0-0.1-0.1-0.2-0.1c-0.2-0.3-0.5-0.6-0.9-1C19.5,43.2,19.1,43,18.7,43"/>
	<polygon class="st1" points="44.1,16.4 6.1,16.4 8.2,21.4 6.1,26.4 44.1,26.4 42,21.4 	"/>
	<path class="st2" d="M39.2,8.2c-2-1.2-6.9-3.7-14.1-3.7C17.9,4.5,13,7,11,8.2c-0.9,0.5-1.6,1.4-1.6,2.5v14.4
		c0,8.3,9.5,14.3,14,16.3c1.2,0.5,1.4,0.5,1.7,0.5c0.3,0,0.5,0,1.7-0.5c4.4-2,14-8,14-16.3l0-14.4C40.8,9.5,40.1,8.7,39.2,8.2"/>
	<path class="st1" d="M25.1,5.7c-6.6,0-11.3,2.2-13.5,3.5c-0.6,0.4-1,0.9-1,1.4v14.4c0,7.2,8.3,12.9,13.2,15.2
		c0.9,0.4,1.1,0.4,1.2,0.4h0c0.1,0,0.3,0,1.2-0.4c4.9-2.2,13.2-8,13.2-15.2V10.7c0-0.6-0.3-1.1-1-1.4C36.4,7.9,31.7,5.7,25.1,5.7
		L25.1,5.7z M25.1,6.2c6.5,0,11.1,2.2,13.2,3.4c0.7,0.4,0.7,0.8,0.7,1v14.4c0,6.9-8.1,12.5-12.9,14.7c-0.8,0.3-0.9,0.4-1,0.4l0,0
		c0,0-0.2,0-1-0.4c-4.8-2.2-12.9-7.8-12.9-14.7V10.7c0-0.1,0-0.6,0.7-1C14.1,8.4,18.6,6.2,25.1,6.2z"/>
	<linearGradient id="SVGID_1_" gradientUnits="userSpaceOnUse" x1="9.9472" y1="30.0397" x2="12.2548" y2="31.6172">
		<stop  offset="0.2767" style="stop-color:#0E79BA"/>
		<stop  offset="0.5408" style="stop-color:#0E77B8"/>
		<stop  offset="0.6934" style="stop-color:#106EB0"/>
		<stop  offset="0.8175" style="stop-color:#1360A3"/>
		<stop  offset="0.9257" style="stop-color:#164D90"/>
		<stop  offset="1" style="stop-color:#1A3A7F"/>
	</linearGradient>
	<path class="st3" d="M12.8,31l-1.9,1.2c0,0,0,0,0,0c0,0,0,0,0,0c0,0,0,0,0,0c0,0,0,0,0,0c-0.1-0.1-0.3-0.3-0.4-0.4
		c-0.1-0.2-0.3-0.4-0.5-0.6c-0.2-0.2-0.3-0.4-0.4-0.5c-0.1-0.2-0.3-0.3-0.4-0.4l1.6-0.9c0.1,0.1,0.3,0.2,0.5,0.3
		c0.2,0.1,0.3,0.3,0.5,0.5c0.2,0.2,0.3,0.3,0.5,0.5c0.2,0.1,0.3,0.3,0.5,0.3C12.7,31,12.7,31,12.8,31C12.7,31,12.7,31,12.8,31
		C12.7,31,12.7,31,12.8,31C12.7,31,12.8,31,12.8,31C12.8,31,12.8,31,12.8,31c0.1,0,0.1,0,0.1,0c0,0,0,0,0.1,0c0,0,0,0,0.1,0
		c0,0,0.1,0,0.1,0c0,0,0.1,0,0.1,0c0,0,0.1,0,0.1,0c0,0,0.1,0,0.1-0.1v0l-2.1,1.4c0,0,0,0-0.1,0c0,0,0,0-0.1,0c0,0,0,0-0.1,0
		c0,0-0.1,0-0.1,0c0,0,0,0,0,0c0,0,0,0,0,0c0,0,0,0,0,0c0,0,0,0,0,0L12.8,31z"/>
	<path class="st1" d="M25.3,10.8c-1,0-1.8,0.8-1.8,1.8c0,1,0.8,1.8,1.8,1.8c1,0,1.8-0.8,1.8-1.8C27.1,11.6,26.3,10.8,25.3,10.8"/>
	<path class="st1" d="M22.3,19.1c-0.2,0.2-0.4,0.4-0.5,0.6c-3.1,3.5-4.1,7.5-2.2,8.9c5.1,3.9,18.9-13,9.2-19.3
		c5.1,3.9,2.4,11.1-1.1,15c-2.6,3-5.9,4.5-7.4,3.4c-1.5-1.1-0.5-4.4,2.1-7.4c0.4-0.4,0.7-0.8,1.1-1.1c-0.3,0-0.7,0-1,0
		C22.4,19.1,22.3,19.1,22.3,19.1"/>
	<polygon class="st1" points="22.8,0 25.2,1.4 28,0.3 27.2,3 29.1,5.2 26.2,5.4 24.5,8 23.5,5.4 20.7,4.8 22.9,2.9 	"/>
	<path class="st4" d="M21.5,11.4L21,11.4l3.5-2.2l3.1,0.6l-1.5,1l0.3,0.4c0,0-1.3-0.1-2.8,1.2c0,0-0.3-0.6-0.3-0.8
		c0-0.1,0-0.4,0.3-0.7c0.3-0.2,1-0.6,1.9-0.7c0,0-1,0-2,0.7c-0.5,0.3-0.3,1-0.3,1l-1.5-0.3l0.2,0.3l0.8,1L22.2,13l-0.5-1.2
		L21.5,11.4z"/>
	<path class="st5" d="M14.7,29.6L14.7,29.6L14.7,29.6L14.7,29.6L14.7,29.6L14.7,29.6L14.7,29.6L14.7,29.6L14.7,29.6L14.7,29.6
		L14.7,29.6L14.7,29.6L14.7,29.6L14.7,29.6L14.7,29.6L14.7,29.6L14.7,29.6L14.7,29.6L14.7,29.6l-0.1,0.1l0,0v0l0,0l0,0l0,0l0,0l0,0
		l0,0h0l0,0l0,0v0l0,0 M13.5,30.9l-2.1,1.4c0,0,0.1-0.1,0.1-0.1c0-0.1,0.1-0.1,0.1-0.2c0-0.1,0.1-0.2,0.1-0.3
		c0.1-0.1,0.1-0.2,0.2-0.2c1.9-0.9,2-1.3,2.7-1.7l0,0l0,0l0,0l0,0h0l0,0l0,0l0,0l0,0l0,0l0,0l0,0l0,0l0,0l0,0l0,0l0,0l0,0l0,0l0,0
		l0,0l0,0l0,0l0,0l0,0l0,0l0,0l0,0l0,0l0,0l0,0l0,0l0,0l0,0l0,0l0,0l0,0l0,0l0,0l0,0l0,0l0,0l0,0l0,0c-0.1,0.1-0.2,0.2-0.3,0.4
		c-0.1,0.1-0.2,0.2-0.2,0.3l0,0l0,0l0,0l0,0l0,0l0,0l0,0l0,0l0,0l0,0l0,0l0,0l0,0l0,0l0,0l0,0l0,0l0,0l0,0l0,0l0,0l0,0l0,0l0,0l0,0
		l0,0l0,0l0,0l0,0v0l0,0v0l0,0l0,0l0,0l0,0l0,0l0,0v0l0,0l0,0v0l0,0L13.5,30.9L13.5,30.9L13.5,30.9L13.5,30.9L13.5,30.9L13.5,30.9
		L13.5,30.9L13.5,30.9L13.5,30.9L13.5,30.9L13.5,30.9L13.5,30.9L13.5,30.9L13.5,30.9L13.5,30.9L13.5,30.9L13.5,30.9L13.5,30.9
		L13.5,30.9L13.5,30.9L13.5,30.9L13.5,30.9L13.5,30.9L13.5,30.9L13.5,30.9L13.5,30.9L13.5,30.9L13.5,30.9L13.5,30.9L13.5,30.9
		L13.5,30.9L13.5,30.9L13.5,30.9L13.5,30.9L13.5,30.9L13.5,30.9L13.5,30.9L13.5,30.9L13.5,30.9z"/>
	<path class="st6" d="M30.2,35.8L27,43.1c-0.2-0.2-0.9-1.1-2.1-2.3c-1.1-1.1-2.5-2.6-4.1-4c-1.4-1.3-2.8-2.5-4.1-3.4
		c-1.1-0.8-2.1-1.5-2.9-1.8c0,0-0.1,0-0.1-0.1c0,0-0.1,0-0.1,0c0,0-0.1,0-0.1,0c0,0-0.1,0-0.1,0c-0.1,0-0.1,0-0.2-0.1
		c-0.1,0-0.1,0-0.2,0c-0.1,0-0.1,0-0.2,0c0,0-0.1,0-0.1,0c-0.1,0-0.2,0-0.3,0c-0.1,0-0.1,0-0.2,0c-0.1,0-0.1,0-0.2,0.1
		c0,0-0.1,0-0.1,0.1l2.8-1.8c0.1,0,0.1-0.1,0.2-0.1c0.1,0,0.2-0.1,0.3-0.1c0.1,0,0.2-0.1,0.3-0.1c0.1,0,0.2-0.1,0.4-0.1
		c0.1,0,0.1,0,0.2,0c0.1,0,0.1,0,0.2,0c0.1,0,0.2,0,0.2,0c0.1,0,0.2,0,0.2,0c0.1,0,0.1,0,0.2,0c0.1,0,0.1,0,0.2,0c0.1,0,0.1,0,0.2,0
		c0.1,0,0.1,0,0.2,0c1,0.1,2.2,0.4,3.4,0.8c1.4,0.5,2.8,1.3,4.1,2c1.4,0.9,2.7,1.7,3.6,2.5C29.5,35.1,30.1,35.6,30.2,35.8L30.2,35.8
		z"/>
	<g>
		<g>
			<g>
				<polygon class="st1" points="19.3,32.4 19.8,32.9 20.6,32.8 20.2,33.4 20.5,34 19.8,33.9 19.3,34.4 19.2,33.8 18.5,33.4 
					19.2,33.1 				"/>
			</g>
			<g>
				<polygon class="st1" points="14.4,30.5 14.8,30.6 15.2,30.3 15.2,30.7 15.6,31 15.2,31.2 15,31.7 14.7,31.3 14.2,31.3 
					14.5,30.9 				"/>
			</g>
			<g>
				<polygon class="st1" points="18,29.9 18.6,30 19.1,29.6 19.1,30.2 19.6,30.5 19.1,30.8 18.9,31.4 18.5,31 17.9,31 18.2,30.5 
									"/>
			</g>
			<g>
				<polygon class="st1" points="10.1,29.9 10.2,30 10.4,29.9 10.4,30.1 10.5,30.3 10.3,30.3 10.2,30.5 10.1,30.3 9.9,30.2 
					10.1,30.1 				"/>
			</g>
			<g>
				<polygon class="st1" points="10.9,30.4 11.1,30.4 11.2,30.3 11.2,30.5 11.4,30.6 11.2,30.7 11.2,30.9 11,30.7 10.8,30.7 
					10.9,30.6 				"/>
			</g>
			<g>
				<polygon class="st1" points="10.9,31.2 11.1,31.4 11.3,31.4 11.2,31.6 11.2,31.8 11,31.7 10.8,31.8 10.8,31.6 10.6,31.5 
					10.9,31.4 				"/>
			</g>
			<g>
				<polygon class="st1" points="22.5,32.8 23.3,32.6 23.7,31.8 24.1,32.5 24.9,32.6 24.3,33.3 24.5,34.2 23.7,33.8 23,34.3 
					23.1,33.4 				"/>
			</g>
			<g>
				<polygon class="st1" points="22.4,35.6 23.4,35.6 24.1,34.7 24.3,35.7 25.3,36.1 24.4,36.7 24.3,37.8 23.5,37.1 22.5,37.4 
					22.9,36.4 				"/>
			</g>
			<g>
				<polygon class="st1" points="26.1,36.8 27.1,36.3 27.2,35.1 28,36 29.1,35.8 28.6,36.8 29.1,37.9 28,37.7 27.2,38.5 27.1,37.4 
									"/>
			</g>
		</g>
	</g>
	<path class="st1" d="M32.7,14.9c0.2,0.1,0.4,0.3,0.6,0.4c2.4,2.2,0.3,7.6-4.5,12.1c-6.9,6.4-14.5,7-13,1c-0.1,1,0.3,1.9,0.8,2.4
		c1.8,1.7,6.8-0.2,11.1-4.3c4-3.8,6.1-8.2,4.9-10.2C32.6,15.8,32.7,15.3,32.7,14.9"/>
	<path class="st1" d="M29.5,27.6L29.5,27.6c-0.9,3.1-2.2,6-4.1,8.6c0.8-2.1,1.3-4.2,1.6-6.4c0.6-0.5,1.2-1,1.9-1.6
		C29.1,28,29.3,27.8,29.5,27.6 M18.4,19.7c3.4-5.4,12.7,1.2,9-12.4c1.5,3,2.6,6.2,3,9.7c-0.5,2-1.5,4-2.8,5.7
		c-0.2,0.3-0.4,0.5-0.7,0.8c-1.2,1.4-2.6,2.5-3.9,3.1c-0.4,0.2-0.7,0.3-1,0.4c1.8-1.6,4.9-6,2.9-7.9C23.5,17.8,20.8,18,18.4,19.7z"
		/>
	<path class="st7" d="M9.1,30.3c0.1,0.1,0.2,0.2,0.4,0.4c0.1,0.2,0.3,0.3,0.4,0.5c0.2,0.2,0.3,0.4,0.5,0.6c0.2,0.2,0.3,0.3,0.4,0.4
		c0,0,0,0,0.1,0c0,0,0,0,0.1,0c0,0,0,0,0.1,0c0,0,0,0,0.1,0c0.1,0,0.2,0,0.3,0c0.1-0.1,0.1-0.2,0.2-0.3c0.1-0.1,0.1-0.3,0.3-0.4
		c0.2-0.1,0.4-0.2,0.8-0.2c0.1,0,0.2,0,0.2,0c0.1,0,0.2,0,0.3,0.1c0.1,0,0.2,0.1,0.3,0.1c0.1,0,0.2,0.1,0.3,0.1
		c0.9,0.4,1.9,1,3.1,1.9c1.4,1.1,2.9,2.4,4.4,3.7c1.6,1.5,3.1,3,4.1,4.1c1.1,1.2,1.7,1.9,1.7,1.9c0,0,0,0,0,0c0,0,0-0.1-0.1-0.1
		c0,0-0.1-0.1-0.1-0.2c-0.1-0.1-0.1-0.1-0.2-0.2c-0.5-0.6-1.4-1.6-2.6-2.8c-1.1-1.1-2.5-2.4-3.9-3.7c-1.2-1.1-2.5-2.2-3.7-3
		c-1-0.7-1.9-1.3-2.6-1.6c-0.1,0-0.2-0.1-0.3-0.1c-0.1,0-0.2-0.1-0.3-0.1c-0.1,0-0.2,0-0.3-0.1c-0.1,0-0.2,0-0.2,0
		c-0.4,0-0.7,0.1-0.8,0.2c-0.1,0.1-0.2,0.3-0.3,0.4c-0.1,0.1-0.1,0.3-0.2,0.3c-0.1,0.1-0.2,0.1-0.3,0c0,0,0,0-0.1,0c0,0,0,0-0.1,0
		c0,0,0,0-0.1,0c0,0,0,0-0.1,0c-0.1-0.1-0.3-0.3-0.4-0.4c-0.1-0.2-0.3-0.4-0.5-0.6c-0.2-0.2-0.3-0.4-0.4-0.5
		C9.3,30.5,9.2,30.4,9.1,30.3"/>
</g>
<g>
	<path class="st8" d="M57,14.3h-0.8l-2.4,3.8v1.7H55V21h-3.7v-1.2h1.2v-1.7l-2.4-3.8h-0.8v-1.2h3.2v1.2h-0.8l1.5,2.6l1.5-2.6h-1
		v-1.2H57V14.3z"/>
	<path class="st8" d="M59.8,19.8h1V21h-3.3v-1.2h1v-5.5h-1v-1.2h3.3v1.2h-1V19.8z"/>
	<path class="st8" d="M65.4,14.3h-1.3v5.5h2.6v-1.4h1.3V21h-6.2v-1.2h1v-5.5h-1v-1.2h3.6V14.3z"/>
	<path class="st8" d="M72.5,13.1c1.9,0,3.1,1,3.1,2.8v2.2c0,1.8-1.2,2.8-3.1,2.8h-3.6v-1.2h1v-5.5h-1v-1.2H72.5z M74.2,15.9
		c0-1.1-0.7-1.7-1.8-1.7h-1.3v5.5h1.3c1.1,0,1.8-0.6,1.8-1.6V15.9z"/>
	<path class="st8" d="M79,19.8h1V21h-3.3v-1.2h1v-5.5h-1v-1.2H80v1.2h-1V19.8z"/>
	<path class="st8" d="M85.1,14.3h-2.9v1.2h-1.3v-2.4h5.8v1.2l-4.2,5.5h2.9v-1.2h1.3V21h-5.8v-1.2L85.1,14.3z"/>
	<path class="st8" d="M95.8,15.7c0-1-0.7-1.6-1.7-1.6c-1.1,0-1.8,0.6-1.8,1.7v2.4c0,1.1,0.7,1.7,1.7,1.7c1.1,0,1.7-0.5,1.7-1.6v-0.1
		h1.3v0.1c0,1.8-1.2,2.7-3.1,2.7s-3.1-1-3.1-2.8v-2.4c0-1.8,1.1-2.8,2.9-2.8c0.9,0,1.6,0.3,2,0.8l0.2-0.7h1v2.7L95.8,15.7L95.8,15.7
		z M93.1,22.6c0.7,0,1.1,0,1.1-0.3s-0.4-0.3-1.1-0.3l0.2-0.6c1.1-0.1,1.9,0.1,1.9,0.9c0,0.8-0.8,1.1-1.9,0.9L93.1,22.6z"/>
	<path class="st8" d="M104.5,18.2c0,1.9-1.2,2.8-3.1,2.8c-1.9,0-3.1-1-3.1-2.8v-2.4c0-1.8,1.2-2.8,3.1-2.8c1.9,0,3.1,1,3.1,2.8V18.2
		z M103.1,15.8c0-1.1-0.7-1.7-1.7-1.7c-1.1,0-1.8,0.6-1.8,1.7v2.4c0,1.1,0.7,1.7,1.7,1.7c1.1,0,1.8-0.6,1.8-1.7V15.8z"/>
	<path class="st8" d="M110.5,15.7c0-1-0.7-1.6-1.7-1.6c-1.1,0-1.8,0.6-1.8,1.7v2.4c0,1.1,0.7,1.7,1.7,1.7c1.1,0,1.7-0.5,1.7-1.6
		v-0.1h1.3v0.1c0,1.8-1.2,2.7-3.1,2.7s-3.1-1-3.1-2.8v-2.4c0-1.8,1.1-2.8,2.9-2.8c0.9,0,1.6,0.3,2,0.8l0.2-0.7h1v2.7L110.5,15.7
		L110.5,15.7z"/>
	<path class="st8" d="M112.5,13.1h3.3v1.2h-1v4c0,1.1,0.6,1.6,1.7,1.6c1.1,0,1.7-0.6,1.7-1.6v-4h-1v-1.2h3.3v1.2h-1v4
		c0,1.8-1.2,2.8-3,2.8c-1.9,0-3-1-3-2.8v-4h-1V13.1z"/>
	<path class="st8" d="M125.5,13.1h3.5v1.2h-0.8l-2.6,2.3l2.7,3.2h0.9V21h-3.5v-1.2h0.8l-1.9-2.4l-1,0.9v1.5h1V21h-3.3v-1.2h1v-5.5
		h-1v-1.2h3.3v1.2h-1v2.6l2.8-2.6h-0.9V13.1z"/>
	<path class="st8" d="M133.6,14.3h-1.3v5.5h2.6v-1.4h1.3V21H130v-1.2h1v-5.5h-1v-1.2h3.6V14.3z"/>
	<path class="st8" d="M136.6,19.8h0.9l2.4-6.7h1.6l2.4,6.7h0.9V21h-3.1v-1.2h0.9l-0.4-1.1h-2.9l-0.4,1.1h0.9V21h-3.1V19.8z
		 M139.6,17.5h2.2l-1.1-3L139.6,17.5z"/>
	<path class="st8" d="M145.4,13.1h4.1c1.6,0,2.6,0.8,2.6,2.4c0,1.3-0.6,2-1.7,2.3l1.2,2h1.1V21h-2l-1.8-3.1h-1.2v1.9h1V21h-3.4v-1.2
		h1v-5.5h-1V13.1z M147.7,16.7h1.7c0.8,0,1.3-0.4,1.3-1.2s-0.5-1.2-1.3-1.2h-1.7V16.7z"/>
	<path class="st8" d="M67,27.4h-0.8v-0.9h5v1.9h-1.1v-1H68v1.8h2.2v0.9H68v1.8h2.1v-1h1.1v1.9h-5v-0.9H67V27.4z"/>
	<path class="st8" d="M75.9,28.4c0-0.7-0.5-1.1-1.4-1.1c-0.9,0-1.4,0.5-1.4,1.3v1.9c0,0.9,0.5,1.3,1.4,1.3c0.9,0,1.4-0.4,1.4-1.2
		v-0.3h-1.7v-0.9h2.7v3.3h-0.8L76,32.2c-0.4,0.4-1,0.6-1.7,0.6c-1.4,0-2.2-0.8-2.2-2.3v-1.9c0-1.4,0.9-2.3,2.3-2.3
		c0.7,0,1.3,0.2,1.6,0.6l0.1-0.5h0.8v2L75.9,28.4L75.9,28.4z M73.8,24.8c0,0.5,0.3,0.6,0.7,0.6c0.4,0,0.7-0.1,0.7-0.6h0.7
		c0,1-0.5,1.4-1.3,1.4c-0.8,0-1.3-0.4-1.3-1.4H73.8z"/>
	<path class="st8" d="M79.7,31.8h0.8v0.9h-2.6v-0.9h0.8v-4.4h-0.8v-0.9h2.6v0.9h-0.8V31.8z M78.7,24.9h1V26h-1V24.9z"/>
	<path class="st8" d="M82.4,31.8h1v-4.4h-1.1v1h-1.1v-1.9h5.5v1.9h-1.1v-1h-1.1v4.4h1v0.9h-3V31.8z"/>
	<path class="st8" d="M89.1,31.8h0.8v0.9h-2.6v-0.9H88v-4.4h-0.8v-0.9h2.6v0.9h-0.8V31.8z M88,24.9h1V26h-1V24.9z"/>
	<path class="st8" d="M92.5,31.8h0.8v0.9h-2.6v-0.9h0.8v-4.4h-0.8v-0.9h1.8l1.8,3.3l1.8-3.3h1.8v0.9H97v4.4h0.8v0.9h-2.6v-0.9h0.8
		v-3.3l-1.7,3.2l-1.7-3.2V31.8z"/>
	<path class="st8" d="M104.7,26.5h2.8v0.9h-0.7l-2,1.8l2.1,2.6h0.7v0.9h-2.8v-0.9h0.7l-1.6-1.9l-0.8,0.7v1.2h0.8v0.9h-2.6v-0.9h0.8
		v-4.4h-0.8v-0.9h2.6v0.9h-0.8v2.1l2.3-2.1h-0.7V26.5z"/>
	<path class="st8" d="M108.1,26.5h2.6v0.9h-0.8v3.2c0,0.8,0.5,1.3,1.3,1.3c0.8,0,1.4-0.4,1.4-1.3v-3.2h-0.8v-0.9h2.6v0.9h-0.8v3.2
		c0,1.5-0.9,2.2-2.4,2.2c-1.5,0-2.4-0.8-2.4-2.2v-3.2h-0.8V26.5z"/>
	<path class="st8" d="M117.9,27.4h-1v4.4h2.1v-1.2h1.1v2.1h-5v-0.9h0.8v-4.4H115v-0.9h2.9V27.4z"/>
	<path class="st8" d="M120.4,26.5h2.6v0.9h-0.8v3.2c0,0.8,0.5,1.3,1.3,1.3c0.8,0,1.4-0.4,1.4-1.3v-3.2h-0.8v-0.9h2.6v0.9H126v3.2
		c0,1.5-0.9,2.2-2.4,2.2c-1.5,0-2.4-0.8-2.4-2.2v-3.2h-0.8V26.5z M122.1,24.9h0.9V26h-0.9V24.9z M124.2,24.9h0.9V26h-0.9V24.9z"/>
	<path class="st8" d="M127.3,26.5h3.3c1.1,0,1.8,0.6,1.8,1.7c0,0.7-0.3,1.2-0.8,1.4c0.5,0.2,0.9,0.8,0.9,1.5c0,1.1-0.7,1.7-1.8,1.7
		h-3.4v-0.9h0.8v-4.4h-0.8V26.5z M129.2,29.2h1.3c0.6,0,0.9-0.3,0.9-0.9s-0.3-0.9-0.9-0.9h-1.3V29.2z M129.2,31.8h1.4
		c0.6,0,0.9-0.3,0.9-0.9c0-0.6-0.3-0.9-0.9-0.9h-1.4V31.8z"/>
	<path class="st8" d="M133,26.5h2.6v0.9h-0.8v3.2c0,0.8,0.5,1.3,1.3,1.3c0.8,0,1.4-0.4,1.4-1.3v-3.2h-0.8v-0.9h2.6v0.9h-0.8v3.2
		c0,1.5-0.9,2.2-2.4,2.2c-1.5,0-2.4-0.8-2.4-2.2v-3.2H133V26.5z M134.8,24.9h0.9V26h-0.9V24.9z M136.9,24.9h0.9V26h-0.9V24.9z"/>
	<g>
		<g>
			<rect x="49.2" y="29.4" class="st8" width="15.5" height="0.7"/>
		</g>
	</g>
	<g>
		<g>
			<rect x="140.8" y="29.4" class="st8" width="12" height="0.7"/>
		</g>
	</g>
</g>
</svg>
