<?xml version="1.0" encoding="utf-8"?>
<!-- Generator: Adobe Illustrator 24.0.0, SVG Export Plug-In . SVG Version: 6.00 Build 0)  -->
<svg version="1.1" id="Layer_1" xmlns="http://www.w3.org/2000/svg" xmlns:xlink="http://www.w3.org/1999/xlink" x="0px" y="0px"
	 viewBox="0 0 154.9 46.1" style="enable-background:new 0 0 154.9 46.1;" xml:space="preserve">
<style type="text/css">
	.st0{fill:#1A3A7F;}
	.st1{fill:#1AA749;}
	.st2{fill-rule:evenodd;clip-rule:evenodd;fill:#D8D7D7;}
	.st3{fill-rule:evenodd;clip-rule:evenodd;fill:#1AA749;}
	.st4{fill-rule:evenodd;clip-rule:evenodd;fill:#1A3A7F;}
	.st5{fill-rule:evenodd;clip-rule:evenodd;fill:#FFFFFF;}
	.st6{fill-rule:evenodd;clip-rule:evenodd;fill:url(#SVGID_1_);}
	.st7{fill-rule:evenodd;clip-rule:evenodd;fill:#008BD2;}
	.st8{fill-rule:evenodd;clip-rule:evenodd;fill:#142A56;}
	.st9{fill-rule:evenodd;clip-rule:evenodd;fill:#0E79BB;}
	.st10{fill-rule:evenodd;clip-rule:evenodd;fill:#717E86;}
</style>
<g>
	<path class="st0" d="M53.3,14.1h-0.9L49.9,18v1.8h1.2V21h-3.9v-1.2h1.3V18l-2.5-3.9h-0.9v-1.2h3.3v1.2h-0.8l1.6,2.6l1.6-2.6h-1
		v-1.2h3.3L53.3,14.1z"/>
	<path class="st0" d="M56.2,19.8h1V21h-3.4v-1.2h1v-5.7h-1v-1.2h3.4v1.2h-1L56.2,19.8z"/>
	<path class="st0" d="M62,14.1h-1.3v5.7h2.7v-1.5h1.4V21h-6.5v-1.2h1v-5.7h-1v-1.2h3.7L62,14.1z"/>
	<path class="st0" d="M69.2,12.9c1.9,0,3.2,1,3.2,2.9v2.3c0,1.9-1.2,2.9-3.2,2.9h-3.7v-1.2h1v-5.7h-1v-1.2H69.2z M71,15.8
		c0-1.1-0.7-1.7-1.8-1.7h-1.3v5.7h1.3c1.1,0,1.8-0.6,1.8-1.7V15.8z"/>
	<path class="st0" d="M76,19.8h1V21h-3.4v-1.2h1v-5.7h-1v-1.2H77v1.2h-1L76,19.8z"/>
	<path class="st0" d="M82.3,14.1h-3v1.3h-1.4v-2.5h6v1.2l-4.4,5.7h3v-1.3h1.4V21h-6v-1.2L82.3,14.1z"/>
	<path class="st0" d="M93.4,15.6c0-1-0.7-1.6-1.8-1.6c-1.1,0-1.8,0.6-1.8,1.7v2.5c0,1.1,0.7,1.7,1.8,1.7s1.8-0.6,1.8-1.6v-0.1h1.4
		v0.1c0,1.9-1.2,2.8-3.2,2.8s-3.2-1-3.2-2.9v-2.5c0-1.8,1.2-2.9,3-2.9c0.8,0,1.5,0.3,2.1,0.8l0.2-0.7h1.1v2.7L93.4,15.6L93.4,15.6z
		 M90.5,22.7c0.7,0,1.1,0,1.1-0.3s-0.4-0.4-1.1-0.3l0.2-0.6c1.1-0.1,2,0.1,2,1s-0.8,1.1-2,0.9L90.5,22.7z"/>
	<path class="st0" d="M102.3,18.2c0,1.9-1.2,2.9-3.2,2.9c-2,0-3.2-1-3.2-2.9v-2.5c0-1.9,1.2-2.9,3.2-2.9c2,0,3.2,1,3.2,2.9V18.2z
		 M100.9,15.7c0-1.1-0.7-1.7-1.8-1.7c-1.1,0-1.8,0.6-1.8,1.7v2.5c0,1.1,0.7,1.7,1.8,1.7c1.1,0,1.8-0.6,1.8-1.7L100.9,15.7z"/>
	<path class="st0" d="M108.5,15.6c0-1-0.7-1.6-1.7-1.6s-1.8,0.6-1.8,1.7v2.5c0,1.1,0.7,1.7,1.8,1.7s1.8-0.6,1.8-1.6v-0.1h1.4v0.1
		c0,1.9-1.2,2.8-3.1,2.8c-1.9,0-3.2-1-3.2-2.9v-2.5c0-1.8,1.2-2.9,3-2.9c0.8,0,1.5,0.3,2.1,0.8l0.2-0.7h1.1v2.7L108.5,15.6
		L108.5,15.6z"/>
	<path class="st0" d="M110.6,12.9h3.4v1.2h-1v4.2c0,1.1,0.7,1.7,1.7,1.7s1.7-0.6,1.7-1.7v-4.2h-1v-1.2h3.4v1.2h-1v4.2
		c0,1.9-1.2,2.9-3.1,2.9c-1.9,0-3.1-1-3.1-2.9v-4.2h-1L110.6,12.9z"/>
	<path class="st0" d="M124,12.9h3.6v1.2h-0.9l-2.6,2.4l2.8,3.3h0.9V21h-3.6v-1.2h0.9l-2-2.5l-1.1,1v1.5h1V21h-3.4v-1.2h1v-5.7h-1
		v-1.2h3.4v1.2h-1v2.7l2.9-2.7H124L124,12.9z"/>
	<path class="st0" d="M132.4,14.1h-1.3v5.7h2.7v-1.5h1.4V21h-6.5v-1.2h1v-5.7h-1v-1.2h3.7L132.4,14.1z"/>
	<path class="st0" d="M135.5,19.8h0.9l2.5-6.9h1.7l2.5,6.9h0.9V21h-3.2v-1.2h0.9l-0.4-1.2h-3l-0.5,1.2h1V21h-3.2L135.5,19.8z
		 M138.6,17.4h2.2l-1.1-3.1L138.6,17.4z"/>
	<path class="st0" d="M144.6,12.9h4.2c1.6,0,2.7,0.8,2.7,2.5c0,1.3-0.7,2.1-1.7,2.4l1.2,2.1h1.1V21h-2l-1.8-3.2H147v2h1.1V21h-3.5
		v-1.2h1v-5.7h-1L144.6,12.9z M147,16.6h1.7c0.8,0,1.3-0.4,1.3-1.3c0-0.9-0.5-1.3-1.3-1.3H147L147,16.6z"/>
	<path class="st1" d="M63.5,27.7h-0.8v-1h5.2v2h-1.1v-1h-2.2v1.8h2.2v1h-2.2v1.8h2.2v-1h1.1v2h-5.1v-1h0.8V27.7z"/>
	<path class="st1" d="M72.7,28.7c0-0.7-0.6-1.1-1.4-1.1c-0.7-0.1-1.4,0.4-1.4,1.1c0,0.1,0,0.2,0,0.3v2c-0.1,0.7,0.4,1.3,1.2,1.4
		c0.1,0,0.2,0,0.3,0c0.9,0,1.4-0.5,1.4-1.3v-0.4H71v-0.9h2.8v3.5H73l-0.2-0.6c-0.5,0.5-1.1,0.7-1.8,0.6c-1.4,0-2.3-0.8-2.3-2.4v-2
		c0-1.5,0.9-2.3,2.4-2.3c0.6,0,1.2,0.2,1.7,0.6l0.1-0.5h0.9v2.1h-1.1L72.7,28.7z M70.6,25c0,0.5,0.3,0.6,0.7,0.6
		c0.4,0,0.7-0.1,0.7-0.6h0.7c0,1-0.5,1.4-1.4,1.4S69.9,26,69.9,25H70.6z"/>
	<path class="st1" d="M76.7,32.3h0.8v1h-2.7v-1h0.8v-4.6h-0.8v-1h2.7v1h-0.8V32.3z M75.6,25.1h1v1.2h-1V25.1z"/>
	<path class="st1" d="M79.4,32.3h1v-4.6h-1.2v1h-1.1v-2h5.6v2h-1.1v-1h-1.2v4.6h1v1h-3.1V32.3z"/>
	<path class="st1" d="M86.4,32.3h0.8v1h-2.7v-1h0.8v-4.6h-0.8v-1h2.7v1h-0.8L86.4,32.3z M85.3,25.1h1v1.2h-1V25.1z"/>
	<path class="st1" d="M90,32.3h0.8v1H88v-1h0.8v-4.6H88v-1h1.9l1.8,3.4l1.8-3.4h1.9v1h-0.8v4.6h0.8v1h-2.7v-1h0.8v-3.4l-1.8,3.3
		L90,28.9V32.3z"/>
	<path class="st1" d="M102.6,26.7h2.9v1h-0.7l-2.1,1.9l2.2,2.7h0.7v1h-2.9v-1h0.7l-1.6-2l-0.8,0.8v1.2h0.8v1H99v-1h0.8v-4.6H99v-1
		h2.7v1h-0.8v2.1l2.4-2.1h-0.7V26.7z"/>
	<path class="st1" d="M106,26.7h2.7v1h-0.8V31c-0.1,0.7,0.4,1.3,1.1,1.3c0.1,0,0.2,0,0.3,0c0.9,0,1.4-0.5,1.4-1.3v-3.3h-0.8v-1h2.7
		v1h-0.8V31c0,1.5-1,2.3-2.5,2.3s-2.5-0.8-2.5-2.3v-3.3H106L106,26.7z"/>
	<path class="st1" d="M116.2,27.7h-1.1v4.6h2.2v-1.2h1.1v2.2h-5.2v-1h0.8v-4.6h-0.8v-1h3V27.7z"/>
	<path class="st1" d="M118.7,26.7h2.7v1h-0.8V31c-0.1,0.7,0.4,1.3,1.1,1.3c0.1,0,0.2,0,0.3,0c0.9,0,1.4-0.5,1.4-1.3v-3.3h-0.8v-1
		h2.7v1h-0.8V31c0,1.5-1,2.3-2.5,2.3s-2.5-0.8-2.5-2.3v-3.3h-0.8V26.7z M120.5,25.1h0.9v1.1h-0.9V25.1z M122.7,25.1h0.9v1.1h-0.9
		V25.1z"/>
	<path class="st1" d="M125.9,26.7h3.4c1.1,0,1.9,0.6,1.9,1.7c0,0.6-0.3,1.2-0.8,1.5c0.6,0.3,1,0.9,0.9,1.6c0,1.1-0.7,1.7-1.9,1.7
		h-3.5v-1h0.8v-4.6h-0.8V26.7z M127.9,29.5h1.3c0.5-0.1,0.8-0.6,0.7-1.1c-0.1-0.3-0.4-0.6-0.7-0.7h-1.3V29.5z M127.9,32.3h1.4
		c0.4,0.1,0.8-0.2,0.9-0.6c0-0.1,0-0.2,0-0.2c0.1-0.4-0.2-0.9-0.7-0.9c-0.1,0-0.2,0-0.3,0h-1.4V32.3z"/>
	<path class="st1" d="M131.8,26.7h2.7v1h-0.8V31c-0.1,0.7,0.4,1.3,1.1,1.3c0.1,0,0.2,0,0.3,0c0.9,0,1.4-0.5,1.4-1.3v-3.3h-0.8v-1
		h2.7v1h-0.8V31c0,1.5-1,2.3-2.5,2.3s-2.5-0.8-2.5-2.3v-3.3h-0.8V26.7z M133.6,25.1h0.9v1.1h-0.9V25.1z M135.8,25.1h0.9v1.1h-0.9
		V25.1z"/>
	<rect x="45.2" y="29.7" class="st1" width="16" height="0.7"/>
	<rect x="139.8" y="29.7" class="st1" width="12.4" height="0.7"/>
</g>
<g>
	<path class="st2" d="M40.1,21.5l2.6-6h-3.9v-4.8c0-1.4-0.7-2.6-2.1-3.4C34.3,5.9,29.2,3.5,22,3.5S9.8,5.9,7.4,7.3
		c-1.3,0.8-2.1,2-2.1,3.4v4.8H1.4l2.6,6l-2.6,6h4.1c0.6,3.3,2.6,6.5,5.9,9.5c2.5,2.3,5.4,4.1,8.5,5.6c1.3,0.6,1.7,0.6,2.1,0.6h0
		c0.4,0,0.9,0,2.1-0.6c3.1-1.4,5.9-3.3,8.5-5.6c3.3-3,5.3-6.2,5.9-9.5h4.1L40.1,21.5z"/>
	<path class="st3" d="M39.7,32.5c-0.2,0.6-0.3,1.3-0.2,1.9c0.6-0.3,1-0.8,1.3-1.5c0.2-0.6,0.3-1.3,0.1-2
		C40.4,31.3,40,31.9,39.7,32.5"/>
	<path class="st3" d="M31.4,41.5c0.2-0.1,0.4-0.1,0.7-0.1c0,0-0.1,0.2-0.3,0.5c-0.2,0.4-0.4,0.9-0.7,1.3c0,0-0.1,0.1-0.1,0.1l0.2,0
		c0.7-0.1,1.4,0,2.1,0.2c-0.6,0.5-1.3,0.8-2,1c-0.7,0.1-1.4,0-2.1-0.4l0,0c0.1-0.1,0.3-0.3,0.4-0.5c0.2-0.3,0.4-0.8,0.7-1.2
		C30.6,41.9,31,41.6,31.4,41.5"/>
	<path class="st3" d="M34.1,39.4c0.2-0.1,0.4-0.2,0.6-0.2c0,0-0.1,0.2-0.2,0.5c-0.1,0.5-0.3,0.9-0.4,1.3c0,0.1,0,0.1-0.1,0.1
		l0.2-0.1c0.7-0.2,1.4-0.3,2.1-0.2c-0.5,0.6-1.1,1-1.8,1.3c-0.7,0.2-1.4,0.2-2.1,0l0,0c0.1-0.2,0.2-0.3,0.3-0.5
		c0.2-0.3,0.3-0.8,0.5-1.3C33.4,40,33.7,39.6,34.1,39.4"/>
	<path class="st3" d="M36.3,36.9c0.2-0.1,0.4-0.3,0.6-0.3c0,0-0.1,0.2-0.1,0.6c0,0.5-0.1,0.9-0.2,1.4c0,0.1,0,0.1,0,0.2
		c0.1,0,0.1-0.1,0.2-0.1c0.6-0.3,1.3-0.5,2-0.5c-0.4,0.7-0.9,1.2-1.6,1.6c-0.6,0.3-1.4,0.4-2.1,0.3l0,0c0.1-0.2,0.1-0.4,0.2-0.5
		c0.1-0.3,0.2-0.9,0.3-1.4C35.7,37.6,36,37.2,36.3,36.9"/>
	<path class="st3" d="M38.2,34.1c0.2-0.2,0.3-0.3,0.5-0.4c0,0,0,0.2,0,0.6c0,0.5,0,1,0,1.4c0,0.1,0,0.1,0,0.2c0.1,0,0.1-0.1,0.2-0.1
		c0.6-0.4,1.2-0.7,1.9-0.9c-0.3,0.7-0.7,1.4-1.3,1.8c-0.6,0.4-1.3,0.7-2,0.7l0,0c0-0.2,0.1-0.4,0.1-0.6c0-0.4,0-0.9,0.1-1.4
		C37.7,34.8,37.9,34.4,38.2,34.1"/>
	<path class="st3" d="M28.4,43.1c0.2,0,0.5,0,0.7,0c0,0-0.1,0.1-0.4,0.4c-0.3,0.4-0.6,0.8-0.9,1.1c0,0-0.1,0.1-0.1,0.1
		c0.1,0,0.1,0,0.2,0c0.7,0,1.4,0.2,2.1,0.5c-0.6,0.4-1.4,0.6-2.2,0.6c-0.4,0-0.7-0.1-1-0.2c-0.1,0-0.1,0-0.2-0.1
		c-0.5-0.2-2.3,0.3-2.8,0.5c-0.3,0.1-0.3-0.7-0.1-0.7c0.4,0,1.8,0.1,2.5-0.6l0.2-0.1c0.2-0.3,0.5-0.6,0.9-1
		C27.6,43.4,28,43.2,28.4,43.1"/>
	<path class="st3" d="M4.4,32.5c0.2,0.6,0.3,1.3,0.2,1.9c-0.6-0.3-1-0.8-1.3-1.5c-0.2-0.6-0.3-1.3-0.1-2C3.7,31.3,4.1,31.9,4.4,32.5
		"/>
	<path class="st3" d="M12.7,41.5c-0.2-0.1-0.4-0.1-0.7-0.1c0,0,0.1,0.2,0.3,0.5c0.2,0.4,0.4,0.9,0.7,1.3c0,0,0.1,0.1,0.1,0.1l-0.2,0
		c-0.7-0.1-1.4,0-2.1,0.2c0.6,0.5,1.3,0.8,2,1c0.7,0.1,1.4,0,2.1-0.4l0,0c-0.1-0.1-0.3-0.3-0.4-0.5c-0.2-0.3-0.4-0.8-0.7-1.2
		C13.5,41.9,13.1,41.6,12.7,41.5"/>
	<path class="st3" d="M10,39.4c-0.2-0.1-0.4-0.2-0.6-0.2c0,0,0.1,0.2,0.2,0.5c0.1,0.5,0.3,0.9,0.4,1.3c0,0.1,0,0.1,0.1,0.1l-0.2-0.1
		c-0.7-0.2-1.4-0.3-2.1-0.2c0.5,0.6,1.1,1,1.8,1.3c0.7,0.2,1.4,0.2,2.1,0l0,0c-0.1-0.2-0.2-0.3-0.3-0.5c-0.2-0.3-0.3-0.8-0.5-1.3
		C10.7,40,10.4,39.6,10,39.4"/>
	<path class="st3" d="M7.8,36.9c-0.2-0.1-0.4-0.3-0.6-0.3c0,0,0.1,0.2,0.1,0.6c0,0.5,0.1,0.9,0.2,1.4c0,0.1,0,0.1,0,0.2
		c-0.1,0-0.1-0.1-0.2-0.1c-0.6-0.3-1.3-0.5-2-0.5c0.4,0.7,0.9,1.2,1.6,1.6c0.6,0.3,1.4,0.4,2.1,0.3l0,0c-0.1-0.2-0.1-0.4-0.2-0.5
		c-0.1-0.3-0.2-0.9-0.3-1.4C8.4,37.6,8.1,37.2,7.8,36.9"/>
	<path class="st3" d="M5.9,34.1c-0.2-0.2-0.3-0.3-0.5-0.4c0,0,0,0.2,0,0.6c0,0.5,0,1,0,1.4c0,0.1,0,0.1,0,0.2l-0.2-0.1
		c-0.6-0.4-1.2-0.7-1.9-0.9c0.3,0.7,0.7,1.4,1.3,1.8c0.6,0.4,1.3,0.7,2,0.7l0,0c0-0.2-0.1-0.4-0.1-0.6c0-0.4,0-0.9-0.1-1.4
		C6.4,34.8,6.2,34.4,5.9,34.1"/>
	<path class="st3" d="M15.7,43.1c-0.2,0-0.5,0-0.7,0c0,0,0.1,0.1,0.4,0.4c0.3,0.4,0.6,0.8,0.9,1.1c0,0,0.1,0.1,0.1,0.1
		c-0.1,0-0.1,0-0.2,0c-0.7,0-1.4,0.2-2.1,0.5c0.6,0.4,1.4,0.6,2.2,0.6c0.4,0,0.7-0.1,1-0.2c0.1,0,0.1,0,0.2-0.1
		c0.5-0.2,2.3,0.3,2.8,0.5c0.3,0.1,0.3-0.7,0.1-0.7c-0.4,0-1.8,0.1-2.5-0.6l-0.2-0.1c-0.2-0.3-0.5-0.6-0.9-1
		C16.5,43.4,16.1,43.2,15.7,43.1"/>
	<polygon class="st3" points="41.1,16.5 3,16.5 5.1,21.5 3,26.4 41.1,26.4 39,21.5 	"/>
	<path class="st4" d="M36.2,8.2C34.2,7,29.3,4.5,22,4.5S9.9,7,7.9,8.2C7,8.7,6.3,9.5,6.3,10.7v14.5c0,8.3,9.6,14.3,14,16.4
		c1.2,0.5,1.4,0.5,1.7,0.5s0.5,0,1.7-0.5c4.4-2,14-8.1,14-16.4V10.7C37.8,9.5,37.1,8.7,36.2,8.2"/>
	<path class="st5" d="M22,5.7c-6.6,0-11.3,2.2-13.5,3.5c-0.6,0.4-1,0.9-1,1.4v14.5c0,7.2,8.3,13,13.3,15.2c0.9,0.4,1.1,0.4,1.2,0.4
		h0c0.1,0,0.3,0,1.2-0.4c4.9-2.3,13.3-8,13.3-15.2V10.7c0-0.6-0.3-1.1-1-1.4C33.4,7.9,28.7,5.7,22,5.7L22,5.7z M22,6.3
		c6.5,0,11.1,2.2,13.2,3.5c0.7,0.4,0.7,0.8,0.7,1v14.5c0,7-8.1,12.5-13,14.7c-0.8,0.3-0.9,0.4-1,0.4h0c0,0-0.2,0-1-0.4
		c-4.8-2.2-13-7.8-13-14.7V10.7c0-0.1,0-0.6,0.7-1C11,8.4,15.5,6.3,22,6.3L22,6.3z"/>
	
		<linearGradient id="SVGID_1_" gradientUnits="userSpaceOnUse" x1="187.4136" y1="-245.2911" x2="189.7281" y2="-246.8741" gradientTransform="matrix(1 0 0 -1 -180.57 -215.17)">
		<stop  offset="0.28" style="stop-color:#0E79BB"/>
		<stop  offset="0.54" style="stop-color:#0E77B9"/>
		<stop  offset="0.69" style="stop-color:#106EB1"/>
		<stop  offset="0.82" style="stop-color:#1360A3"/>
		<stop  offset="0.93" style="stop-color:#164D91"/>
		<stop  offset="1" style="stop-color:#1A3A7F"/>
	</linearGradient>
	<path class="st6" d="M9.7,31.1l-1.9,1.2l0,0l0,0l0,0l0,0c-0.2-0.1-0.3-0.3-0.4-0.4c-0.1-0.2-0.3-0.4-0.5-0.6
		c-0.2-0.2-0.3-0.4-0.4-0.5c-0.1-0.1-0.2-0.3-0.4-0.4l1.6-0.9c0.2,0.1,0.3,0.2,0.5,0.3c0.2,0.1,0.3,0.3,0.5,0.5
		c0.2,0.2,0.3,0.3,0.5,0.5C9.2,30.8,9.4,31,9.6,31L9.7,31.1L9.7,31.1L9.7,31.1L9.7,31.1L9.7,31.1l0.1,0h0.1c0,0,0,0,0.1,0
		c0,0,0.1,0,0.1,0c0,0,0.1,0,0.1,0c0,0,0.1,0,0.1,0c0,0,0.1,0,0.1-0.1l0,0l-2.2,1.4c0,0,0,0-0.1,0c0,0,0,0-0.1,0c0,0,0,0-0.1,0
		c0,0-0.1,0-0.1,0c0,0,0,0,0,0l0,0l0,0l0,0L9.7,31.1z"/>
	<path class="st5" d="M22.2,10.8c-1,0-1.8,0.8-1.8,1.8c0,1,0.8,1.8,1.8,1.8c1,0,1.8-0.8,1.8-1.8c0,0,0,0,0,0
		C24,11.6,23.2,10.8,22.2,10.8"/>
	<path class="st3" d="M19.2,19.1c-0.2,0.2-0.4,0.4-0.5,0.6c-3.1,3.5-4.1,7.5-2.3,8.9c5.1,3.9,18.9-13.1,9.2-19.4
		c5.1,3.9,2.4,11.1-1.1,15.1c-2.6,3-5.9,4.5-7.4,3.4c-1.5-1.1-0.5-4.4,2.1-7.4c0.4-0.4,0.7-0.8,1.1-1.1c-0.3,0-0.7,0-1,0
		C19.3,19.1,19.3,19.1,19.2,19.1"/>
	<polygon class="st3" points="19.7,0 22.1,1.5 24.9,0.3 24.1,3 26,5.2 23.1,5.4 21.5,8 20.5,5.4 17.6,4.8 19.9,2.9 	"/>
	<path class="st7" d="M18.4,11.5l-0.5-0.1l3.5-2.2l3.1,0.6l-1.5,1l0.3,0.4c0,0-1.3-0.1-2.8,1.2c0,0-0.3-0.6-0.3-0.8
		c0-0.3,0.1-0.5,0.3-0.7c0.6-0.4,1.2-0.6,1.9-0.7c-0.7,0-1.4,0.2-2,0.7c-0.5,0.3-0.3,1-0.3,1l-1.5-0.3l0.2,0.3l0.8,1l-0.4,0.3
		l-0.5-1.2L18.4,11.5z"/>
	<path class="st8" d="M11.6,29.7L11.6,29.7L11.6,29.7L11.6,29.7L11.6,29.7L11.6,29.7L11.6,29.7L11.6,29.7L11.6,29.7L11.6,29.7
		L11.6,29.7L11.6,29.7L11.6,29.7L11.6,29.7L11.6,29.7L11.6,29.7L11.6,29.7L11.6,29.7L11.6,29.7L11.6,29.7L11.6,29.7L11.6,29.7
		L11.6,29.7L11.6,29.7L11.6,29.7L11.6,29.7L11.6,29.7L11.6,29.7L11.6,29.7L11.6,29.7L11.6,29.7L11.6,29.7 M10.5,30.9l-2.1,1.4
		c0,0,0.1-0.1,0.1-0.1c0-0.1,0.1-0.1,0.1-0.2c0-0.1,0.1-0.2,0.1-0.3c0.1-0.1,0.1-0.2,0.2-0.2c1.9-1,2-1.3,2.7-1.7l0,0l0,0l0,0h0l0,0
		l0,0l0,0l0,0l0,0l0,0l0,0l0,0l0,0l0,0l0,0l0,0l0,0l0,0l0,0l0,0l0,0l0,0l0,0l0,0l0,0l0,0l0,0l0,0l0,0l0,0l0,0l0,0l0,0l0,0l0,0l0,0
		l0,0l0,0l0,0l0,0l0,0l0,0l0,0l0,0c-0.1,0.1-0.2,0.2-0.3,0.4c-0.1,0.1-0.2,0.2-0.2,0.3l0,0l0,0l0,0l0,0l0,0l0,0l0,0l0,0l0,0l0,0l0,0
		l0,0l0,0l0,0l0,0l0,0l0,0l0,0l0,0l0,0l0,0l0,0l0,0l0,0l0,0l0,0l0,0l0,0l0,0l0,0l0,0l0,0l0,0l0,0l0,0l0,0l0,0l0,0l0,0l0,0l0,0l0,0
		l0,0l0,0l0,0l0,0l0,0l0,0l0,0l0,0l0,0l0,0l0,0l0,0l0,0l0,0l0,0l0,0l0,0l0,0l0,0l0,0l0,0l0,0l0,0l0,0l0,0l0,0l0,0l0,0l0,0l0,0
		L10.5,30.9z"/>
	<path class="st9" d="M27.2,35.9l-3.3,7.3C23.7,43,23,42.2,21.8,41c-1.1-1.1-2.5-2.6-4.1-4c-1.3-1.2-2.7-2.4-4.1-3.4
		c-1.1-0.8-2.1-1.5-3-1.8l-0.1-0.1l-0.1,0l-0.1,0c0,0-0.1,0-0.1,0L10,31.5c-0.1,0-0.1,0-0.2,0c-0.1,0-0.1,0-0.2,0c0,0-0.1,0-0.1,0
		c-0.1,0-0.2,0-0.3,0c-0.1,0-0.1,0-0.2,0c-0.1,0-0.1,0-0.2,0c0,0-0.1,0-0.1,0.1l2.9-1.8c0.1,0,0.1-0.1,0.2-0.1s0.2-0.1,0.3-0.1
		c0.1,0,0.2-0.1,0.3-0.1c0.1,0,0.3-0.1,0.4-0.1c0.1,0,0.1,0,0.2,0s0.1,0,0.2,0l0.2,0c0.1,0,0.2,0,0.2,0h0.2H14h0.2h0.2
		c1.2,0.1,2.3,0.4,3.4,0.8c1.4,0.6,2.8,1.2,4.1,2c1.2,0.8,2.5,1.6,3.6,2.5C26.4,35.2,27,35.7,27.2,35.9L27.2,35.9z"/>
	<polygon class="st3" points="16.2,32.5 16.7,33 17.5,32.9 17.1,33.5 17.5,34.1 16.8,34 16.2,34.5 16.1,33.9 15.4,33.5 16.1,33.2 	
		"/>
	<polygon class="st3" points="11.3,30.5 11.7,30.7 12.1,30.3 12.1,30.8 12.5,31.1 12.1,31.3 11.9,31.8 11.6,31.4 11.1,31.4 11.4,31 
			"/>
	<polygon class="st3" points="14.9,30 15.5,30.1 16,29.7 16,30.3 16.6,30.6 16,30.9 15.8,31.5 15.4,31 14.8,31.1 15.1,30.6 	"/>
	<polygon class="st3" points="7,30 7.1,30.1 7.3,30 7.3,30.2 7.4,30.4 7.2,30.4 7.1,30.5 7,30.4 6.8,30.3 7,30.2 	"/>
	<polygon class="st3" points="7.8,30.5 8,30.5 8.1,30.3 8.1,30.6 8.3,30.7 8.1,30.7 8.1,31 7.9,30.8 7.7,30.8 7.8,30.6 	"/>
	<polygon class="st3" points="7.8,31.3 8,31.5 8.2,31.5 8.1,31.7 8.1,31.9 7.9,31.8 7.7,31.9 7.7,31.7 7.5,31.6 7.8,31.5 	"/>
	<polygon class="st3" points="19.4,32.9 20.2,32.7 20.6,31.9 21,32.6 21.9,32.7 21.3,33.4 21.4,34.3 20.7,33.9 19.9,34.4 20,33.5 	
		"/>
	<polygon class="st3" points="19.3,35.7 20.3,35.7 21,34.8 21.2,35.8 22.2,36.2 21.3,36.8 21.2,37.9 20.5,37.2 19.4,37.5 19.8,36.5 
			"/>
	<polygon class="st3" points="23,36.9 24,36.4 24.2,35.2 24.9,36.1 26,35.9 25.5,36.9 26,38 25,37.8 24.2,38.6 24,37.5 	"/>
	<path class="st3" d="M29.6,14.9c0.2,0.1,0.4,0.3,0.6,0.4c2.4,2.2,0.3,7.7-4.5,12.2c-6.9,6.4-14.5,7-13,1c-0.1,0.9,0.2,1.8,0.8,2.4
		c1.8,1.7,6.8-0.2,11.1-4.3c4-3.8,6.1-8.2,4.9-10.2C29.6,15.9,29.6,15.4,29.6,14.9"/>
	<path class="st5" d="M26.4,27.6L26.4,27.6c-0.9,3.1-2.2,6-4.1,8.7c0.8-2.1,1.3-4.2,1.6-6.5c0.6-0.5,1.3-1,1.9-1.6
		C26,28.1,26.2,27.9,26.4,27.6 M15.3,19.8c3.4-5.4,12.8,1.2,9-12.4c1.6,3,2.6,6.3,3,9.7c-0.5,2-1.6,4.1-2.8,5.7
		c-0.2,0.3-0.4,0.5-0.7,0.8c-1.2,1.4-2.6,2.5-3.9,3.1c-0.3,0.1-0.7,0.3-1,0.4c1.8-1.6,5-6,2.9-7.9C20.5,17.9,17.7,18.1,15.3,19.8z"
		/>
	<path class="st10" d="M6,30.4c0.1,0.1,0.3,0.2,0.4,0.4c0.1,0.2,0.3,0.3,0.4,0.5c0.2,0.2,0.3,0.4,0.5,0.6c0.1,0.2,0.3,0.3,0.4,0.4
		l0.1,0c0,0,0,0,0.1,0c0,0,0,0,0.1,0c0,0,0,0,0.1,0c0.1,0,0.2,0,0.3,0c0.1-0.1,0.1-0.2,0.2-0.3c0.1-0.2,0.1-0.3,0.3-0.4
		c0.2-0.1,0.4-0.2,0.8-0.2c0.1,0,0.2,0,0.2,0c0.1,0,0.2,0,0.3,0.1c0.1,0,0.2,0.1,0.3,0.1s0.2,0.1,0.3,0.1c0.9,0.4,1.9,1.1,3.1,1.9
		c1.5,1.2,3,2.4,4.4,3.7c1.6,1.5,3.1,3,4.1,4.1c1.1,1.2,1.7,1.9,1.7,1.9l0,0l-0.1-0.1L23.7,43l-0.2-0.2c-0.5-0.6-1.4-1.6-2.7-2.8
		c-1.1-1.1-2.5-2.4-3.9-3.7c-1.2-1.1-2.4-2.1-3.7-3c-0.8-0.6-1.7-1.2-2.6-1.6c-0.1,0-0.2-0.1-0.3-0.1c-0.1,0-0.2-0.1-0.3-0.1
		c-0.1,0-0.2,0-0.3-0.1c-0.1,0-0.2,0-0.2,0c-0.4,0-0.7,0.1-0.8,0.2c-0.1,0.1-0.2,0.3-0.3,0.4c0,0.1-0.1,0.2-0.2,0.3
		c-0.1,0.1-0.2,0.1-0.3,0l-0.1,0l-0.1,0l-0.1,0l-0.1,0c-0.2-0.1-0.3-0.3-0.4-0.4c-0.1-0.2-0.3-0.4-0.5-0.6c-0.2-0.2-0.3-0.4-0.4-0.5
		C6.2,30.6,6.1,30.5,6,30.4"/>
</g>
</svg>
