<?xml version="1.0" encoding="utf-8"?>
<!-- Generator: Adobe Illustrator 24.0.0, SVG Export Plug-In . SVG Version: 6.00 Build 0)  -->
<svg version="1.1" id="Layer_1" xmlns="http://www.w3.org/2000/svg" xmlns:xlink="http://www.w3.org/1999/xlink" x="0px" y="0px"
	 viewBox="0 0 46 46" style="enable-background:new 0 0 46 46;" xml:space="preserve">
<style type="text/css">
	.st0{fill-rule:evenodd;clip-rule:evenodd;fill:#D8D7D7;}
	.st1{fill-rule:evenodd;clip-rule:evenodd;fill:#1AA749;}
	.st2{fill-rule:evenodd;clip-rule:evenodd;fill:#1A3A7F;}
	.st3{fill-rule:evenodd;clip-rule:evenodd;fill:#FFFFFF;}
	.st4{fill-rule:evenodd;clip-rule:evenodd;fill:url(#SVGID_1_);}
	.st5{fill-rule:evenodd;clip-rule:evenodd;fill:#008BD2;}
	.st6{fill-rule:evenodd;clip-rule:evenodd;fill:#142A56;}
	.st7{fill-rule:evenodd;clip-rule:evenodd;fill:#0E79BB;}
	.st8{fill-rule:evenodd;clip-rule:evenodd;fill:#717E86;}
</style>
<g>
	<path class="st0" d="M41,21.4l2.6-6h-3.9v-4.8c0-1.4-0.7-2.6-2.1-3.4C35.2,5.9,30.2,3.5,23,3.5S10.8,5.9,8.4,7.3
		c-1.3,0.8-2.1,2-2.1,3.4v4.8H2.4l2.6,6l-2.6,6h4.1c0.6,3.3,2.6,6.4,5.9,9.4c2.5,2.3,5.4,4.1,8.4,5.6C22.1,43,22.5,43,23,43h0
		c0.4,0,0.9,0,2.1-0.6c3.1-1.4,5.9-3.3,8.4-5.6c3.3-3,5.3-6.2,5.9-9.4h4.1L41,21.4z"/>
	<path class="st1" d="M40.6,32.4c-0.2,0.6-0.3,1.2-0.2,1.9c0.6-0.3,1-0.8,1.3-1.4c0.2-0.6,0.3-1.3,0.1-2
		C41.3,31.3,40.9,31.8,40.6,32.4"/>
	<path class="st1" d="M32.3,41.4c0.2-0.1,0.4-0.1,0.7-0.1c0,0-0.1,0.2-0.3,0.5c-0.2,0.4-0.4,0.8-0.7,1.3c0,0-0.1,0.1-0.1,0.1l0.2,0
		c0.7-0.1,1.4,0,2.1,0.2c-0.6,0.5-1.3,0.8-2,0.9c-0.7,0.1-1.4,0-2.1-0.4l0,0c0.1-0.1,0.3-0.3,0.4-0.5c0.2-0.3,0.4-0.7,0.7-1.2
		C31.6,41.8,31.9,41.5,32.3,41.4"/>
	<path class="st1" d="M35,39.3c0.2-0.1,0.4-0.2,0.6-0.2c0,0-0.1,0.2-0.2,0.5c-0.1,0.5-0.3,0.9-0.4,1.3c0,0.1,0,0.1-0.1,0.1l0.2-0.1
		c0.7-0.2,1.4-0.3,2.1-0.2c-0.5,0.6-1.1,1-1.8,1.3c-0.7,0.2-1.4,0.2-2.1,0l0,0c0.1-0.2,0.2-0.3,0.3-0.5c0.2-0.3,0.3-0.8,0.5-1.3
		C34.3,39.9,34.6,39.5,35,39.3"/>
	<path class="st1" d="M37.3,36.8c0.2-0.1,0.4-0.3,0.6-0.3c0,0-0.1,0.2-0.1,0.6c0,0.5-0.1,0.9-0.2,1.4c0,0.1,0,0.1,0,0.2
		c0.1,0,0.1-0.1,0.2-0.1c0.6-0.3,1.3-0.5,2-0.5c-0.4,0.7-0.9,1.2-1.6,1.6c-0.6,0.3-1.4,0.4-2.1,0.3l0,0c0.1-0.2,0.1-0.4,0.2-0.5
		c0.1-0.3,0.2-0.9,0.3-1.4C36.7,37.5,36.9,37.1,37.3,36.8"/>
	<path class="st1" d="M39.1,34c0.2-0.2,0.3-0.3,0.5-0.4c0,0,0,0.2,0,0.6c0,0.5,0,0.9,0,1.4c0,0.1,0,0.1,0,0.2c0.1,0,0.1-0.1,0.2-0.1
		c0.6-0.4,1.2-0.7,1.9-0.9c-0.3,0.7-0.7,1.3-1.3,1.8c-0.6,0.4-1.3,0.7-2,0.7l0,0c0-0.2,0.1-0.4,0.1-0.6c0-0.4,0-0.9,0.1-1.4
		C38.6,34.8,38.8,34.3,39.1,34"/>
	<path class="st1" d="M29.4,43c0.2,0,0.5,0,0.7,0c0,0-0.1,0.1-0.4,0.4c-0.3,0.4-0.6,0.8-0.9,1.1c0,0-0.1,0.1-0.1,0.1
		c0.1,0,0.1,0,0.2,0c0.7,0,1.4,0.2,2,0.5c-0.6,0.4-1.4,0.6-2.1,0.6c-0.4,0-0.7-0.1-1-0.2c-0.1,0-0.1,0-0.2-0.1
		c-0.5-0.2-2.3,0.3-2.8,0.5c-0.3,0.1-0.3-0.7-0.1-0.7c0.4,0,1.8,0.1,2.5-0.6l0.2-0.1c0.2-0.3,0.5-0.6,0.9-1
		C28.5,43.3,28.9,43.1,29.4,43"/>
	<path class="st1" d="M5.4,32.4c0.2,0.6,0.3,1.2,0.2,1.9c-0.6-0.3-1-0.8-1.3-1.4c-0.2-0.6-0.3-1.3-0.1-2C4.7,31.3,5.1,31.8,5.4,32.4
		"/>
	<path class="st1" d="M13.7,41.4c-0.2-0.1-0.4-0.1-0.7-0.1c0,0,0.1,0.2,0.3,0.5c0.2,0.4,0.4,0.8,0.7,1.3c0,0,0.1,0.1,0.1,0.1l-0.2,0
		c-0.7-0.1-1.4,0-2.1,0.2c0.6,0.5,1.3,0.8,2,0.9c0.7,0.1,1.4,0,2.1-0.4l0,0c-0.1-0.1-0.3-0.3-0.4-0.5c-0.2-0.3-0.4-0.7-0.7-1.2
		C14.4,41.8,14.1,41.5,13.7,41.4"/>
	<path class="st1" d="M11,39.3c-0.2-0.1-0.4-0.2-0.6-0.2c0,0,0.1,0.2,0.2,0.5c0.1,0.5,0.3,0.9,0.4,1.3c0,0.1,0,0.1,0.1,0.1l-0.2-0.1
		c-0.7-0.2-1.4-0.3-2.1-0.2c0.5,0.6,1.1,1,1.8,1.3c0.7,0.2,1.4,0.2,2.1,0l0,0c-0.1-0.2-0.2-0.3-0.3-0.5c-0.2-0.3-0.3-0.8-0.5-1.3
		C11.7,39.9,11.4,39.5,11,39.3"/>
	<path class="st1" d="M8.7,36.8c-0.2-0.1-0.4-0.3-0.6-0.3c0,0,0.1,0.2,0.1,0.6c0,0.5,0.1,0.9,0.2,1.4c0,0.1,0,0.1,0,0.2
		c-0.1,0-0.1-0.1-0.2-0.1C7.7,38.2,7,38,6.3,38c0.4,0.7,0.9,1.2,1.6,1.6c0.6,0.3,1.4,0.4,2.1,0.3l0,0c-0.1-0.2-0.1-0.4-0.2-0.5
		C9.6,39,9.6,38.5,9.4,38C9.3,37.5,9.1,37.1,8.7,36.8"/>
	<path class="st1" d="M6.9,34c-0.2-0.2-0.3-0.3-0.5-0.4c0,0,0,0.2,0,0.6c0,0.5,0,0.9,0,1.4c0,0.1,0,0.1,0,0.2l-0.2-0.1
		c-0.6-0.4-1.2-0.7-1.9-0.9C4.5,35.4,5,36,5.6,36.5c0.6,0.4,1.3,0.7,2,0.7l0,0c0-0.2-0.1-0.4-0.1-0.6c0-0.4,0-0.9-0.1-1.4
		C7.4,34.8,7.2,34.3,6.9,34"/>
	<path class="st1" d="M16.6,43c-0.2,0-0.5,0-0.7,0c0,0,0.1,0.1,0.4,0.4c0.3,0.4,0.6,0.8,0.9,1.1c0,0,0.1,0.1,0.1,0.1
		c-0.1,0-0.1,0-0.2,0c-0.7,0-1.4,0.2-2.1,0.5c0.6,0.4,1.4,0.6,2.2,0.6c0.4,0,0.7-0.1,1-0.2c0.1,0,0.1,0,0.2-0.1
		c0.5-0.2,2.3,0.3,2.8,0.5c0.3,0.1,0.3-0.7,0.1-0.7c-0.4,0-1.8,0.1-2.5-0.6l-0.2-0.1c-0.2-0.3-0.5-0.6-0.9-1
		C17.5,43.3,17.1,43.1,16.6,43"/>
	<polygon class="st1" points="42,16.4 4,16.4 6.1,21.4 4,26.4 42,26.4 39.9,21.4 	"/>
	<path class="st2" d="M37.1,8.2C35.1,7,30.3,4.5,23,4.5S10.8,7,8.9,8.2C8,8.7,7.3,9.5,7.3,10.7v14.5c0,8.3,9.6,14.3,14,16.3
		C22.4,42,22.7,42,23,42c0.3,0,0.5,0,1.7-0.5c4.4-2,14-8,14-16.3V10.7C38.7,9.5,38,8.7,37.1,8.2"/>
	<path class="st3" d="M23,5.7c-6.6,0-11.3,2.2-13.5,3.5c-0.6,0.4-1,0.9-1,1.4v14.5c0,7.2,8.3,12.9,13.2,15.2
		c0.9,0.4,1.1,0.4,1.2,0.4h0c0.1,0,0.3,0,1.2-0.4c4.9-2.3,13.2-8,13.2-15.2V10.7c0-0.6-0.3-1.1-1-1.4C34.3,7.9,29.6,5.7,23,5.7
		L23,5.7z M23,6.2c6.5,0,11.1,2.2,13.2,3.5c0.7,0.4,0.7,0.8,0.7,1v14.5c0,6.9-8.1,12.5-12.9,14.7c-0.8,0.3-0.9,0.4-1,0.4h0
		c0,0-0.2,0-1-0.4c-4.8-2.2-12.9-7.8-12.9-14.7V10.7c0-0.1,0-0.6,0.7-1C11.9,8.4,16.5,6.2,23,6.2L23,6.2z"/>
	
		<linearGradient id="SVGID_1_" gradientUnits="userSpaceOnUse" x1="188.4016" y1="-245.2258" x2="190.7111" y2="-246.8053" gradientTransform="matrix(1 0 0 -1 -180.57 -215.17)">
		<stop  offset="0.28" style="stop-color:#0E79BB"/>
		<stop  offset="0.54" style="stop-color:#0E77B9"/>
		<stop  offset="0.69" style="stop-color:#106EB1"/>
		<stop  offset="0.82" style="stop-color:#1360A3"/>
		<stop  offset="0.93" style="stop-color:#164D91"/>
		<stop  offset="1" style="stop-color:#1A3A7F"/>
	</linearGradient>
	<path class="st4" d="M10.7,31l-1.9,1.2l0,0l0,0l0,0l0,0c-0.2-0.1-0.3-0.3-0.4-0.4c-0.1-0.2-0.3-0.4-0.5-0.6
		c-0.2-0.2-0.3-0.4-0.4-0.5c-0.1-0.1-0.2-0.3-0.4-0.4l1.6-0.9c0.2,0.1,0.3,0.2,0.5,0.3c0.2,0.1,0.3,0.3,0.5,0.5
		c0.2,0.2,0.3,0.3,0.5,0.5c0.2,0.1,0.3,0.3,0.5,0.3L10.7,31L10.7,31L10.7,31L10.7,31L10.7,31l0.1,0h0.1c0,0,0,0,0.1,0
		c0,0,0.1,0,0.1,0c0,0,0.1,0,0.1,0c0,0,0.1,0,0.1,0c0,0,0.1,0,0.1-0.1l0,0l-2.2,1.4c0,0,0,0-0.1,0c0,0,0,0-0.1,0c0,0,0,0-0.1,0
		c0,0-0.1,0-0.1,0c0,0,0,0,0,0l0,0l0,0l0,0L10.7,31z"/>
	<path class="st3" d="M23.2,10.8c-1,0-1.8,0.8-1.8,1.8c0,1,0.8,1.8,1.8,1.8c1,0,1.8-0.8,1.8-1.8c0,0,0,0,0,0
		C25,11.6,24.2,10.8,23.2,10.8"/>
	<path class="st1" d="M20.2,19.1c-0.2,0.2-0.4,0.4-0.5,0.6c-3.1,3.5-4.1,7.5-2.2,8.9c5.1,3.9,18.9-13,9.2-19.3
		c5.1,3.9,2.4,11.1-1.1,15c-2.6,3-5.9,4.5-7.4,3.4c-1.5-1.1-0.5-4.4,2.1-7.4c0.4-0.4,0.7-0.8,1.1-1.1c-0.3,0-0.7,0-1,0
		C20.3,19.1,20.2,19.1,20.2,19.1"/>
	<polygon class="st1" points="20.7,0 23.1,1.4 25.9,0.3 25.1,3 27,5.2 24.1,5.4 22.4,8 21.4,5.4 18.5,4.8 20.8,2.9 	"/>
	<path class="st5" d="M19.4,11.5l-0.5-0.1l3.5-2.2l3.1,0.6l-1.5,1l0.3,0.4c0,0-1.3-0.1-2.8,1.2c0,0-0.3-0.6-0.3-0.8
		c0-0.3,0.1-0.5,0.3-0.7c0.6-0.4,1.2-0.6,1.9-0.7c-0.7,0-1.4,0.2-2,0.7c-0.5,0.3-0.3,1-0.3,1l-1.5-0.3l0.2,0.3l0.8,1l-0.4,0.2
		l-0.5-1.2L19.4,11.5z"/>
	<path class="st6" d="M12.6,29.7L12.6,29.7L12.6,29.7L12.6,29.7L12.6,29.7L12.6,29.7L12.6,29.7L12.6,29.7L12.6,29.7L12.6,29.7
		L12.6,29.7L12.6,29.7L12.6,29.7L12.6,29.7L12.6,29.7L12.6,29.7L12.6,29.7L12.6,29.7L12.6,29.7L12.6,29.7L12.6,29.7L12.6,29.7
		L12.6,29.7L12.6,29.7L12.6,29.7L12.6,29.7L12.6,29.7L12.6,29.7L12.6,29.7L12.6,29.7L12.6,29.7L12.6,29.7 M11.5,30.8l-2.1,1.4
		c0,0,0.1-0.1,0.1-0.1c0-0.1,0.1-0.1,0.1-0.2c0-0.1,0.1-0.2,0.1-0.3c0.1-0.1,0.1-0.2,0.2-0.2c1.9-0.9,2-1.3,2.7-1.7l0,0l0,0l0,0h0
		l0,0l0,0l0,0l0,0l0,0l0,0l0,0l0,0l0,0l0,0l0,0l0,0l0,0l0,0l0,0l0,0l0,0l0,0l0,0l0,0l0,0l0,0l0,0l0,0l0,0l0,0l0,0l0,0l0,0l0,0l0,0
		l0,0l0,0l0,0l0,0l0,0l0,0l0,0l0,0l0,0c-0.1,0.1-0.2,0.2-0.3,0.4c-0.1,0.1-0.2,0.2-0.2,0.3l0,0l0,0l0,0l0,0l0,0l0,0l0,0l0,0l0,0l0,0
		l0,0l0,0l0,0l0,0l0,0l0,0l0,0l0,0l0,0l0,0l0,0l0,0l0,0l0,0l0,0l0,0l0,0l0,0l0,0l0,0l0,0l0,0l0,0l0,0l0,0l0,0l0,0l0,0l0,0l0,0l0,0
		l0,0l0,0l0,0l0,0l0,0l0,0l0,0l0,0l0,0l0,0l0,0l0,0l0,0l0,0l0,0l0,0l0,0l0,0l0,0l0,0l0,0l0,0l0,0l0,0l0,0l0,0l0,0l0,0l0,0l0,0l0,0
		L11.5,30.8z"/>
	<path class="st7" d="M28.1,35.8l-3.3,7.3c-0.2-0.2-0.9-1.1-2.1-2.3c-1.1-1.1-2.5-2.6-4.1-4c-1.3-1.2-2.7-2.4-4.1-3.4
		c-1.1-0.8-2.1-1.5-2.9-1.8l-0.1-0.1l-0.1,0l-0.1,0c0,0-0.1,0-0.1,0L11,31.4c-0.1,0-0.1,0-0.2,0c-0.1,0-0.1,0-0.2,0c0,0-0.1,0-0.1,0
		c-0.1,0-0.2,0-0.3,0c-0.1,0-0.1,0-0.2,0c-0.1,0-0.1,0-0.2,0c0,0-0.1,0-0.1,0.1l2.9-1.8c0.1,0,0.1-0.1,0.2-0.1
		c0.1,0,0.2-0.1,0.3-0.1s0.2-0.1,0.3-0.1c0.1,0,0.2-0.1,0.4-0.1c0.1,0,0.1,0,0.2,0c0.1,0,0.1,0,0.2,0l0.2,0c0.1,0,0.2,0,0.2,0h0.2
		H15h0.2h0.2c1.2,0.1,2.3,0.4,3.4,0.8c1.4,0.6,2.8,1.2,4.1,2c1.2,0.7,2.5,1.6,3.6,2.5C27.4,35.1,28,35.7,28.1,35.8L28.1,35.8z"/>
	<polygon class="st1" points="17.2,32.4 17.7,32.9 18.4,32.8 18.1,33.4 18.4,34 17.7,33.9 17.2,34.5 17.1,33.8 16.4,33.5 17.1,33.1 
			"/>
	<polygon class="st1" points="12.2,30.5 12.7,30.6 13.1,30.3 13.1,30.8 13.5,31 13,31.2 12.9,31.7 12.6,31.3 12.1,31.4 12.4,30.9 	
		"/>
	<polygon class="st1" points="15.9,29.9 16.5,30 17,29.6 17,30.2 17.5,30.6 16.9,30.8 16.8,31.5 16.4,31 15.7,31.1 16.1,30.5 	"/>
	<polygon class="st1" points="8,29.9 8.1,30 8.3,30 8.2,30.1 8.4,30.3 8.2,30.3 8.1,30.5 8,30.3 7.8,30.3 8,30.1 	"/>
	<polygon class="st1" points="8.7,30.4 8.9,30.4 9.1,30.3 9.1,30.5 9.3,30.6 9.1,30.7 9,30.9 8.9,30.7 8.7,30.8 8.8,30.6 	"/>
	<polygon class="st1" points="8.8,31.2 8.9,31.4 9.2,31.4 9,31.6 9.1,31.8 8.9,31.7 8.7,31.9 8.7,31.7 8.5,31.5 8.7,31.5 	"/>
	<polygon class="st1" points="20.3,32.8 21.2,32.6 21.6,31.8 21.9,32.6 22.8,32.7 22.2,33.3 22.4,34.2 21.6,33.8 20.9,34.3 21,33.4 
			"/>
	<polygon class="st1" points="20.3,35.6 21.3,35.6 21.9,34.8 22.2,35.8 23.1,36.1 22.3,36.7 22.2,37.8 21.4,37.1 20.4,37.5 
		20.8,36.5 	"/>
	<polygon class="st1" points="24,36.8 25,36.3 25.1,35.2 25.9,36 27,35.8 26.5,36.8 27,37.9 25.9,37.7 25.1,38.5 25,37.4 	"/>
	<path class="st1" d="M30.6,14.9c0.2,0.1,0.4,0.3,0.6,0.4c2.4,2.2,0.3,7.6-4.5,12.1c-6.9,6.4-14.5,7-13,1c-0.1,0.9,0.2,1.8,0.8,2.4
		c1.8,1.7,6.8-0.2,11.1-4.3c4-3.8,6.1-8.2,4.9-10.2C30.5,15.8,30.6,15.4,30.6,14.9"/>
	<path class="st3" d="M27.4,27.6L27.4,27.6c-0.9,3.1-2.2,6-4.1,8.6c0.8-2.1,1.3-4.2,1.6-6.4c0.6-0.5,1.2-1,1.9-1.6
		C26.9,28,27.2,27.8,27.4,27.6 M16.2,19.7c3.4-5.4,12.7,1.2,9-12.4c1.6,3,2.6,6.3,3,9.7c-0.5,2-1.5,4-2.8,5.7
		c-0.2,0.3-0.4,0.5-0.7,0.8c-1.2,1.4-2.6,2.5-3.9,3.1c-0.3,0.1-0.7,0.3-1,0.4c1.8-1.6,4.9-6,2.9-7.9C21.4,17.8,18.7,18,16.2,19.7z"
		/>
	<path class="st8" d="M7,30.3c0.1,0.1,0.3,0.2,0.4,0.4c0.1,0.2,0.3,0.3,0.4,0.5s0.3,0.4,0.5,0.6c0.1,0.2,0.3,0.3,0.4,0.4l0.1,0
		c0,0,0,0,0.1,0c0,0,0,0,0.1,0c0,0,0,0,0.1,0c0.1,0,0.2,0,0.3,0c0.1-0.1,0.1-0.2,0.2-0.3c0.1-0.2,0.1-0.3,0.3-0.4
		c0.2-0.1,0.4-0.2,0.8-0.2c0.1,0,0.2,0,0.2,0c0.1,0,0.2,0,0.3,0.1s0.2,0.1,0.3,0.1c0.1,0,0.2,0.1,0.3,0.1c0.9,0.4,1.9,1,3.1,1.9
		c1.5,1.2,3,2.4,4.4,3.7c1.6,1.5,3.1,3,4.1,4.1c1.1,1.2,1.7,1.9,1.7,1.9l0,0l-0.1-0.1l-0.1-0.2l-0.2-0.2c-0.5-0.6-1.4-1.6-2.6-2.8
		c-1.1-1.1-2.5-2.4-3.9-3.7c-1.2-1.1-2.4-2.1-3.7-3c-0.8-0.6-1.7-1.2-2.6-1.6c-0.1,0-0.2-0.1-0.3-0.1c-0.1,0-0.2-0.1-0.3-0.1
		c-0.1,0-0.2,0-0.3-0.1c-0.1,0-0.2,0-0.2,0c-0.4,0-0.7,0.1-0.8,0.2c-0.1,0.1-0.2,0.3-0.3,0.4c0,0.1-0.1,0.2-0.2,0.3
		c-0.1,0.1-0.2,0.1-0.3,0l-0.1,0l-0.1,0l-0.1,0l-0.1,0c-0.2-0.1-0.3-0.3-0.4-0.4c-0.1-0.2-0.3-0.4-0.5-0.6c-0.2-0.2-0.3-0.4-0.4-0.5
		C7.2,30.5,7.1,30.4,7,30.3"/>
</g>
</svg>
